<mxfile host="app.diagrams.net" agent="Mozilla/5.0 (Windows NT 10.0; Win64; x64) AppleWebKit/537.36 (KHTML, like Gecko) Chrome/136.0.0.0 Safari/537.36 Edg/136.0.0.0" version="26.2.14">
  <diagram name="Page-1" id="CrqZvdELNg_sNi3KtctJ">
    <mxGraphModel dx="1289" dy="605" grid="1" gridSize="10" guides="1" tooltips="1" connect="1" arrows="1" fold="1" page="1" pageScale="1" pageWidth="850" pageHeight="1100" math="0" shadow="0">
      <root>
        <mxCell id="0" />
        <mxCell id="1" parent="0" />
        <mxCell id="TavT3rjSJ-_88NFbu6Fk-26" value="" style="endArrow=none;html=1;rounded=0;sketch=1;hachureGap=4;jiggle=2;curveFitting=1;fontFamily=Architects Daughter;fontSource=https%3A%2F%2Ffonts.googleapis.com%2Fcss%3Ffamily%3DArchitects%2BDaughter;exitX=1;exitY=0.5;exitDx=0;exitDy=0;" edge="1" parent="1" source="TavT3rjSJ-_88NFbu6Fk-40">
          <mxGeometry width="50" height="50" relative="1" as="geometry">
            <mxPoint x="170" y="450" as="sourcePoint" />
            <mxPoint x="80" y="213" as="targetPoint" />
          </mxGeometry>
        </mxCell>
        <mxCell id="TavT3rjSJ-_88NFbu6Fk-28" value="" style="endArrow=none;html=1;rounded=0;sketch=1;hachureGap=4;jiggle=2;curveFitting=1;fontFamily=Architects Daughter;fontSource=https%3A%2F%2Ffonts.googleapis.com%2Fcss%3Ffamily%3DArchitects%2BDaughter;exitX=1;exitY=0.5;exitDx=0;exitDy=0;" edge="1" parent="1" source="TavT3rjSJ-_88NFbu6Fk-169" target="TavT3rjSJ-_88NFbu6Fk-35">
          <mxGeometry width="50" height="50" relative="1" as="geometry">
            <mxPoint x="-280" y="215" as="sourcePoint" />
            <mxPoint x="-240" y="215" as="targetPoint" />
          </mxGeometry>
        </mxCell>
        <mxCell id="TavT3rjSJ-_88NFbu6Fk-32" value="" style="group" vertex="1" connectable="0" parent="1">
          <mxGeometry x="-840" y="30" width="530" height="320" as="geometry" />
        </mxCell>
        <mxCell id="TavT3rjSJ-_88NFbu6Fk-1" value="&lt;b&gt;&lt;font style=&quot;font-size: 18px;&quot;&gt;Tourist&lt;/font&gt;&lt;/b&gt;" style="rounded=1;whiteSpace=wrap;html=1;sketch=1;hachureGap=4;jiggle=2;curveFitting=1;fontFamily=Architects Daughter;fontSource=https%3A%2F%2Ffonts.googleapis.com%2Fcss%3Ffamily%3DArchitects%2BDaughter;" vertex="1" parent="TavT3rjSJ-_88NFbu6Fk-32">
          <mxGeometry x="185" y="140" width="160" height="90" as="geometry" />
        </mxCell>
        <mxCell id="TavT3rjSJ-_88NFbu6Fk-2" value="&lt;u&gt;&lt;b&gt;&lt;font style=&quot;font-size: 14px;&quot;&gt;tu_id&lt;/font&gt;&lt;/b&gt;&lt;/u&gt;" style="ellipse;whiteSpace=wrap;html=1;sketch=1;hachureGap=4;jiggle=2;curveFitting=1;fontFamily=Architects Daughter;fontSource=https%3A%2F%2Ffonts.googleapis.com%2Fcss%3Ffamily%3DArchitects%2BDaughter;" vertex="1" parent="TavT3rjSJ-_88NFbu6Fk-32">
          <mxGeometry x="215" y="60" width="60" height="40" as="geometry" />
        </mxCell>
        <mxCell id="TavT3rjSJ-_88NFbu6Fk-5" value="&lt;span style=&quot;font-size:12.0pt;mso-bidi-font-size:11.0pt;&lt;br/&gt;line-height:115%;font-family:&amp;quot;Times New Roman&amp;quot;,&amp;quot;serif&amp;quot;;mso-fareast-font-family:&lt;br/&gt;Calibri;mso-fareast-theme-font:minor-latin;mso-ansi-language:EN-US;mso-fareast-language:&lt;br/&gt;EN-US;mso-bidi-language:AR-SA&quot;&gt;tu_fst_name&lt;/span&gt;" style="ellipse;whiteSpace=wrap;html=1;sketch=1;hachureGap=4;jiggle=2;curveFitting=1;fontFamily=Architects Daughter;fontSource=https%3A%2F%2Ffonts.googleapis.com%2Fcss%3Ffamily%3DArchitects%2BDaughter;" vertex="1" parent="TavT3rjSJ-_88NFbu6Fk-32">
          <mxGeometry x="135" y="10" width="80" height="50" as="geometry" />
        </mxCell>
        <mxCell id="TavT3rjSJ-_88NFbu6Fk-6" value="&lt;span style=&quot;font-size:12.0pt;mso-bidi-font-size:11.0pt;&lt;br/&gt;line-height:115%;font-family:&amp;quot;Times New Roman&amp;quot;,&amp;quot;serif&amp;quot;;mso-fareast-font-family:&lt;br/&gt;Calibri;mso-fareast-theme-font:minor-latin;mso-ansi-language:EN-US;mso-fareast-language:&lt;br/&gt;EN-US;mso-bidi-language:AR-SA&quot;&gt;tu_passport_no&lt;/span&gt;" style="ellipse;whiteSpace=wrap;html=1;sketch=1;hachureGap=4;jiggle=2;curveFitting=1;fontFamily=Architects Daughter;fontSource=https%3A%2F%2Ffonts.googleapis.com%2Fcss%3Ffamily%3DArchitects%2BDaughter;" vertex="1" parent="TavT3rjSJ-_88NFbu6Fk-32">
          <mxGeometry x="420" y="230" width="110" height="50" as="geometry" />
        </mxCell>
        <mxCell id="TavT3rjSJ-_88NFbu6Fk-7" value="&lt;span style=&quot;font-size:12.0pt;mso-bidi-font-size:11.0pt;&lt;br/&gt;line-height:115%;font-family:&amp;quot;Times New Roman&amp;quot;,&amp;quot;serif&amp;quot;;mso-fareast-font-family:&lt;br/&gt;Calibri;mso-fareast-theme-font:minor-latin;mso-ansi-language:EN-US;mso-fareast-language:&lt;br/&gt;EN-US;mso-bidi-language:AR-SA&quot;&gt;tu_phone_no2&lt;/span&gt;" style="ellipse;whiteSpace=wrap;html=1;sketch=1;hachureGap=4;jiggle=2;curveFitting=1;fontFamily=Architects Daughter;fontSource=https%3A%2F%2Ffonts.googleapis.com%2Fcss%3Ffamily%3DArchitects%2BDaughter;" vertex="1" parent="TavT3rjSJ-_88NFbu6Fk-32">
          <mxGeometry x="5" y="130" width="100" height="50" as="geometry" />
        </mxCell>
        <mxCell id="TavT3rjSJ-_88NFbu6Fk-8" value="&lt;span style=&quot;font-size:12.0pt;mso-bidi-font-size:11.0pt;&lt;br/&gt;line-height:115%;font-family:&amp;quot;Times New Roman&amp;quot;,&amp;quot;serif&amp;quot;;mso-fareast-font-family:&lt;br/&gt;Calibri;mso-fareast-theme-font:minor-latin;mso-ansi-language:EN-US;mso-fareast-language:&lt;br/&gt;EN-US;mso-bidi-language:AR-SA&quot;&gt;tu_phone_no1&lt;/span&gt;" style="ellipse;whiteSpace=wrap;html=1;sketch=1;hachureGap=4;jiggle=2;curveFitting=1;fontFamily=Architects Daughter;fontSource=https%3A%2F%2Ffonts.googleapis.com%2Fcss%3Ffamily%3DArchitects%2BDaughter;" vertex="1" parent="TavT3rjSJ-_88NFbu6Fk-32">
          <mxGeometry x="395" y="80" width="110" height="50" as="geometry" />
        </mxCell>
        <mxCell id="TavT3rjSJ-_88NFbu6Fk-9" value="&lt;span style=&quot;font-size:12.0pt;mso-bidi-font-size:11.0pt;&lt;br/&gt;line-height:115%;font-family:&amp;quot;Times New Roman&amp;quot;,&amp;quot;serif&amp;quot;;mso-fareast-font-family:&lt;br/&gt;Calibri;mso-fareast-theme-font:minor-latin;mso-ansi-language:EN-US;mso-fareast-language:&lt;br/&gt;EN-US;mso-bidi-language:AR-SA&quot;&gt;tu_email&lt;/span&gt;" style="ellipse;whiteSpace=wrap;html=1;sketch=1;hachureGap=4;jiggle=2;curveFitting=1;fontFamily=Architects Daughter;fontSource=https%3A%2F%2Ffonts.googleapis.com%2Fcss%3Ffamily%3DArchitects%2BDaughter;" vertex="1" parent="TavT3rjSJ-_88NFbu6Fk-32">
          <mxGeometry x="55" y="60" width="80" height="50" as="geometry" />
        </mxCell>
        <mxCell id="TavT3rjSJ-_88NFbu6Fk-10" value="&lt;span style=&quot;font-size:12.0pt;mso-bidi-font-size:11.0pt;&lt;br/&gt;line-height:115%;font-family:&amp;quot;Times New Roman&amp;quot;,&amp;quot;serif&amp;quot;;mso-fareast-font-family:&lt;br/&gt;Calibri;mso-fareast-theme-font:minor-latin;mso-ansi-language:EN-US;mso-fareast-language:&lt;br/&gt;EN-US;mso-bidi-language:AR-SA&quot;&gt;tu_las_name&lt;/span&gt;" style="ellipse;whiteSpace=wrap;html=1;sketch=1;hachureGap=4;jiggle=2;curveFitting=1;fontFamily=Architects Daughter;fontSource=https%3A%2F%2Ffonts.googleapis.com%2Fcss%3Ffamily%3DArchitects%2BDaughter;" vertex="1" parent="TavT3rjSJ-_88NFbu6Fk-32">
          <mxGeometry x="345" y="20" width="90" height="60" as="geometry" />
        </mxCell>
        <mxCell id="TavT3rjSJ-_88NFbu6Fk-11" value="&lt;span style=&quot;font-size:12.0pt;mso-bidi-font-size:11.0pt;&lt;br/&gt;line-height:115%;font-family:&amp;quot;Times New Roman&amp;quot;,&amp;quot;serif&amp;quot;;mso-fareast-font-family:&lt;br/&gt;Calibri;mso-fareast-theme-font:minor-latin;mso-ansi-language:EN-US;mso-fareast-language:&lt;br/&gt;EN-US;mso-bidi-language:AR-SA&quot;&gt;gender&lt;/span&gt;" style="ellipse;whiteSpace=wrap;html=1;sketch=1;hachureGap=4;jiggle=2;curveFitting=1;fontFamily=Architects Daughter;fontSource=https%3A%2F%2Ffonts.googleapis.com%2Fcss%3Ffamily%3DArchitects%2BDaughter;" vertex="1" parent="TavT3rjSJ-_88NFbu6Fk-32">
          <mxGeometry x="360" y="280" width="60" height="40" as="geometry" />
        </mxCell>
        <mxCell id="TavT3rjSJ-_88NFbu6Fk-12" value="&lt;span style=&quot;font-size:12.0pt;mso-bidi-font-size:11.0pt;&lt;br/&gt;line-height:115%;font-family:&amp;quot;Times New Roman&amp;quot;,&amp;quot;serif&amp;quot;;mso-fareast-font-family:&lt;br/&gt;Calibri;mso-fareast-theme-font:minor-latin;mso-ansi-language:EN-US;mso-fareast-language:&lt;br/&gt;EN-US;mso-bidi-language:AR-SA&quot;&gt;tu_nation&lt;/span&gt;" style="ellipse;whiteSpace=wrap;html=1;sketch=1;hachureGap=4;jiggle=2;curveFitting=1;fontFamily=Architects Daughter;fontSource=https%3A%2F%2Ffonts.googleapis.com%2Fcss%3Ffamily%3DArchitects%2BDaughter;" vertex="1" parent="TavT3rjSJ-_88NFbu6Fk-32">
          <mxGeometry y="210" width="110" height="50" as="geometry" />
        </mxCell>
        <mxCell id="TavT3rjSJ-_88NFbu6Fk-13" value="&lt;span style=&quot;font-size:12.0pt;mso-bidi-font-size:11.0pt;&lt;br/&gt;line-height:115%;font-family:&amp;quot;Times New Roman&amp;quot;,&amp;quot;serif&amp;quot;;mso-fareast-font-family:&lt;br/&gt;Calibri;mso-fareast-theme-font:minor-latin;mso-ansi-language:EN-US;mso-fareast-language:&lt;br/&gt;EN-US;mso-bidi-language:AR-SA&quot;&gt;tu_mid_name&lt;/span&gt;" style="ellipse;whiteSpace=wrap;html=1;sketch=1;hachureGap=4;jiggle=2;curveFitting=1;fontFamily=Architects Daughter;fontSource=https%3A%2F%2Ffonts.googleapis.com%2Fcss%3Ffamily%3DArchitects%2BDaughter;" vertex="1" parent="TavT3rjSJ-_88NFbu6Fk-32">
          <mxGeometry x="235" width="100" height="50" as="geometry" />
        </mxCell>
        <mxCell id="TavT3rjSJ-_88NFbu6Fk-14" value="age" style="ellipse;whiteSpace=wrap;html=1;sketch=1;hachureGap=4;jiggle=2;curveFitting=1;fontFamily=Architects Daughter;fontSource=https%3A%2F%2Ffonts.googleapis.com%2Fcss%3Ffamily%3DArchitects%2BDaughter;" vertex="1" parent="TavT3rjSJ-_88NFbu6Fk-32">
          <mxGeometry x="25" y="280" width="60" height="40" as="geometry" />
        </mxCell>
        <mxCell id="TavT3rjSJ-_88NFbu6Fk-15" value="" style="endArrow=none;html=1;rounded=0;sketch=1;hachureGap=4;jiggle=2;curveFitting=1;fontFamily=Architects Daughter;fontSource=https%3A%2F%2Ffonts.googleapis.com%2Fcss%3Ffamily%3DArchitects%2BDaughter;entryX=0.5;entryY=1;entryDx=0;entryDy=0;exitX=0.4;exitY=0.03;exitDx=0;exitDy=0;exitPerimeter=0;" edge="1" parent="TavT3rjSJ-_88NFbu6Fk-32" source="TavT3rjSJ-_88NFbu6Fk-1" target="TavT3rjSJ-_88NFbu6Fk-2">
          <mxGeometry width="50" height="50" relative="1" as="geometry">
            <mxPoint x="185" y="110" as="sourcePoint" />
            <mxPoint x="235" y="60" as="targetPoint" />
          </mxGeometry>
        </mxCell>
        <mxCell id="TavT3rjSJ-_88NFbu6Fk-20" value="" style="endArrow=none;html=1;rounded=0;sketch=1;hachureGap=4;jiggle=2;curveFitting=1;fontFamily=Architects Daughter;fontSource=https%3A%2F%2Ffonts.googleapis.com%2Fcss%3Ffamily%3DArchitects%2BDaughter;exitX=0.25;exitY=0;exitDx=0;exitDy=0;entryX=0.5;entryY=1;entryDx=0;entryDy=0;" edge="1" parent="TavT3rjSJ-_88NFbu6Fk-32" source="TavT3rjSJ-_88NFbu6Fk-1" target="TavT3rjSJ-_88NFbu6Fk-5">
          <mxGeometry width="50" height="50" relative="1" as="geometry">
            <mxPoint x="155" y="130" as="sourcePoint" />
            <mxPoint x="205" y="80" as="targetPoint" />
          </mxGeometry>
        </mxCell>
        <mxCell id="TavT3rjSJ-_88NFbu6Fk-30" value="" style="endArrow=none;html=1;rounded=0;sketch=1;hachureGap=4;jiggle=2;curveFitting=1;fontFamily=Architects Daughter;fontSource=https%3A%2F%2Ffonts.googleapis.com%2Fcss%3Ffamily%3DArchitects%2BDaughter;entryX=0;entryY=0.5;entryDx=0;entryDy=0;exitX=1;exitY=1;exitDx=0;exitDy=0;" edge="1" parent="TavT3rjSJ-_88NFbu6Fk-32" source="TavT3rjSJ-_88NFbu6Fk-1" target="TavT3rjSJ-_88NFbu6Fk-6">
          <mxGeometry width="50" height="50" relative="1" as="geometry">
            <mxPoint x="295" y="340" as="sourcePoint" />
            <mxPoint x="345" y="290" as="targetPoint" />
          </mxGeometry>
        </mxCell>
        <mxCell id="TavT3rjSJ-_88NFbu6Fk-22" style="edgeStyle=orthogonalEdgeStyle;rounded=0;sketch=1;hachureGap=4;jiggle=2;curveFitting=1;orthogonalLoop=1;jettySize=auto;html=1;exitX=0.5;exitY=1;exitDx=0;exitDy=0;fontFamily=Architects Daughter;fontSource=https%3A%2F%2Ffonts.googleapis.com%2Fcss%3Ffamily%3DArchitects%2BDaughter;" edge="1" parent="TavT3rjSJ-_88NFbu6Fk-32" source="TavT3rjSJ-_88NFbu6Fk-7" target="TavT3rjSJ-_88NFbu6Fk-7">
          <mxGeometry relative="1" as="geometry" />
        </mxCell>
        <mxCell id="TavT3rjSJ-_88NFbu6Fk-21" value="" style="endArrow=none;html=1;rounded=0;sketch=1;hachureGap=4;jiggle=2;curveFitting=1;fontFamily=Architects Daughter;fontSource=https%3A%2F%2Ffonts.googleapis.com%2Fcss%3Ffamily%3DArchitects%2BDaughter;entryX=0;entryY=0.5;entryDx=0;entryDy=0;exitX=1;exitY=0.5;exitDx=0;exitDy=0;" edge="1" parent="TavT3rjSJ-_88NFbu6Fk-32" source="TavT3rjSJ-_88NFbu6Fk-7" target="TavT3rjSJ-_88NFbu6Fk-1">
          <mxGeometry width="50" height="50" relative="1" as="geometry">
            <mxPoint x="105" y="240" as="sourcePoint" />
            <mxPoint x="155" y="190" as="targetPoint" />
          </mxGeometry>
        </mxCell>
        <mxCell id="TavT3rjSJ-_88NFbu6Fk-18" value="" style="endArrow=none;html=1;rounded=0;sketch=1;hachureGap=4;jiggle=2;curveFitting=1;fontFamily=Architects Daughter;fontSource=https%3A%2F%2Ffonts.googleapis.com%2Fcss%3Ffamily%3DArchitects%2BDaughter;exitX=1;exitY=0.25;exitDx=0;exitDy=0;entryX=0;entryY=1;entryDx=0;entryDy=0;" edge="1" parent="TavT3rjSJ-_88NFbu6Fk-32" source="TavT3rjSJ-_88NFbu6Fk-1" target="TavT3rjSJ-_88NFbu6Fk-8">
          <mxGeometry width="50" height="50" relative="1" as="geometry">
            <mxPoint x="385" y="160" as="sourcePoint" />
            <mxPoint x="425" y="130" as="targetPoint" />
          </mxGeometry>
        </mxCell>
        <mxCell id="TavT3rjSJ-_88NFbu6Fk-19" value="" style="endArrow=none;html=1;rounded=0;sketch=1;hachureGap=4;jiggle=2;curveFitting=1;fontFamily=Architects Daughter;fontSource=https%3A%2F%2Ffonts.googleapis.com%2Fcss%3Ffamily%3DArchitects%2BDaughter;exitX=1.115;exitY=0.714;exitDx=0;exitDy=0;exitPerimeter=0;entryX=0;entryY=0.25;entryDx=0;entryDy=0;" edge="1" parent="TavT3rjSJ-_88NFbu6Fk-32" source="TavT3rjSJ-_88NFbu6Fk-9" target="TavT3rjSJ-_88NFbu6Fk-1">
          <mxGeometry width="50" height="50" relative="1" as="geometry">
            <mxPoint x="555" y="270" as="sourcePoint" />
            <mxPoint x="605" y="220" as="targetPoint" />
          </mxGeometry>
        </mxCell>
        <mxCell id="TavT3rjSJ-_88NFbu6Fk-16" value="" style="endArrow=none;html=1;rounded=0;sketch=1;hachureGap=4;jiggle=2;curveFitting=1;fontFamily=Architects Daughter;fontSource=https%3A%2F%2Ffonts.googleapis.com%2Fcss%3Ffamily%3DArchitects%2BDaughter;entryX=0;entryY=1;entryDx=0;entryDy=0;exitX=0.796;exitY=-0.015;exitDx=0;exitDy=0;exitPerimeter=0;" edge="1" parent="TavT3rjSJ-_88NFbu6Fk-32" source="TavT3rjSJ-_88NFbu6Fk-1" target="TavT3rjSJ-_88NFbu6Fk-10">
          <mxGeometry width="50" height="50" relative="1" as="geometry">
            <mxPoint x="325" y="120" as="sourcePoint" />
            <mxPoint x="345" y="90" as="targetPoint" />
          </mxGeometry>
        </mxCell>
        <mxCell id="TavT3rjSJ-_88NFbu6Fk-27" value="" style="endArrow=none;html=1;rounded=0;sketch=1;hachureGap=4;jiggle=2;curveFitting=1;fontFamily=Architects Daughter;fontSource=https%3A%2F%2Ffonts.googleapis.com%2Fcss%3Ffamily%3DArchitects%2BDaughter;entryX=0;entryY=0.5;entryDx=0;entryDy=0;exitX=0.843;exitY=1.101;exitDx=0;exitDy=0;exitPerimeter=0;" edge="1" parent="TavT3rjSJ-_88NFbu6Fk-32" source="TavT3rjSJ-_88NFbu6Fk-1" target="TavT3rjSJ-_88NFbu6Fk-11">
          <mxGeometry width="50" height="50" relative="1" as="geometry">
            <mxPoint x="255" y="330" as="sourcePoint" />
            <mxPoint x="305" y="280" as="targetPoint" />
          </mxGeometry>
        </mxCell>
        <mxCell id="TavT3rjSJ-_88NFbu6Fk-31" value="" style="endArrow=none;html=1;rounded=0;sketch=1;hachureGap=4;jiggle=2;curveFitting=1;fontFamily=Architects Daughter;fontSource=https%3A%2F%2Ffonts.googleapis.com%2Fcss%3Ffamily%3DArchitects%2BDaughter;exitX=1;exitY=0.5;exitDx=0;exitDy=0;entryX=0;entryY=0.75;entryDx=0;entryDy=0;" edge="1" parent="TavT3rjSJ-_88NFbu6Fk-32" source="TavT3rjSJ-_88NFbu6Fk-12" target="TavT3rjSJ-_88NFbu6Fk-1">
          <mxGeometry width="50" height="50" relative="1" as="geometry">
            <mxPoint x="125" y="310" as="sourcePoint" />
            <mxPoint x="175" y="260" as="targetPoint" />
          </mxGeometry>
        </mxCell>
        <mxCell id="TavT3rjSJ-_88NFbu6Fk-17" value="" style="endArrow=none;html=1;rounded=0;sketch=1;hachureGap=4;jiggle=2;curveFitting=1;fontFamily=Architects Daughter;fontSource=https%3A%2F%2Ffonts.googleapis.com%2Fcss%3Ffamily%3DArchitects%2BDaughter;exitX=0.608;exitY=-0.059;exitDx=0;exitDy=0;exitPerimeter=0;entryX=0.5;entryY=1;entryDx=0;entryDy=0;" edge="1" parent="TavT3rjSJ-_88NFbu6Fk-32" source="TavT3rjSJ-_88NFbu6Fk-1" target="TavT3rjSJ-_88NFbu6Fk-13">
          <mxGeometry width="50" height="50" relative="1" as="geometry">
            <mxPoint x="240" y="110" as="sourcePoint" />
            <mxPoint x="290" y="60" as="targetPoint" />
          </mxGeometry>
        </mxCell>
        <mxCell id="TavT3rjSJ-_88NFbu6Fk-29" value="" style="endArrow=none;html=1;rounded=0;sketch=1;hachureGap=4;jiggle=2;curveFitting=1;fontFamily=Architects Daughter;fontSource=https%3A%2F%2Ffonts.googleapis.com%2Fcss%3Ffamily%3DArchitects%2BDaughter;exitX=1;exitY=0;exitDx=0;exitDy=0;entryX=0;entryY=1;entryDx=0;entryDy=0;" edge="1" parent="TavT3rjSJ-_88NFbu6Fk-32" source="TavT3rjSJ-_88NFbu6Fk-14" target="TavT3rjSJ-_88NFbu6Fk-1">
          <mxGeometry width="50" height="50" relative="1" as="geometry">
            <mxPoint x="135" y="300" as="sourcePoint" />
            <mxPoint x="185" y="250" as="targetPoint" />
          </mxGeometry>
        </mxCell>
        <mxCell id="TavT3rjSJ-_88NFbu6Fk-169" value="&lt;font style=&quot;font-size: 24px;&quot;&gt;&lt;b style=&quot;&quot;&gt;M:N&lt;/b&gt;&lt;/font&gt;" style="text;html=1;align=center;verticalAlign=middle;whiteSpace=wrap;rounded=0;fontFamily=Architects Daughter;fontSource=https%3A%2F%2Ffonts.googleapis.com%2Fcss%3Ffamily%3DArchitects%2BDaughter;rotation=0;" vertex="1" parent="TavT3rjSJ-_88NFbu6Fk-32">
          <mxGeometry x="360" y="163.75" width="45" height="42.5" as="geometry" />
        </mxCell>
        <mxCell id="TavT3rjSJ-_88NFbu6Fk-170" value="" style="endArrow=none;html=1;rounded=0;sketch=1;hachureGap=4;jiggle=2;curveFitting=1;fontFamily=Architects Daughter;fontSource=https%3A%2F%2Ffonts.googleapis.com%2Fcss%3Ffamily%3DArchitects%2BDaughter;exitX=1;exitY=0.5;exitDx=0;exitDy=0;" edge="1" parent="TavT3rjSJ-_88NFbu6Fk-32" source="TavT3rjSJ-_88NFbu6Fk-1" target="TavT3rjSJ-_88NFbu6Fk-169">
          <mxGeometry width="50" height="50" relative="1" as="geometry">
            <mxPoint x="345" y="185" as="sourcePoint" />
            <mxPoint x="541" y="183" as="targetPoint" />
          </mxGeometry>
        </mxCell>
        <mxCell id="TavT3rjSJ-_88NFbu6Fk-35" value="&lt;font style=&quot;font-size: 18px;&quot;&gt;&lt;b&gt;can book&lt;/b&gt;&lt;/font&gt;" style="rhombus;whiteSpace=wrap;html=1;sketch=1;hachureGap=4;jiggle=2;curveFitting=1;fontFamily=Architects Daughter;fontSource=https%3A%2F%2Ffonts.googleapis.com%2Fcss%3Ffamily%3DArchitects%2BDaughter;" vertex="1" parent="1">
          <mxGeometry x="-300" y="165" width="120" height="95" as="geometry" />
        </mxCell>
        <mxCell id="TavT3rjSJ-_88NFbu6Fk-36" value="" style="endArrow=none;html=1;rounded=0;sketch=1;hachureGap=4;jiggle=2;curveFitting=1;fontFamily=Architects Daughter;fontSource=https%3A%2F%2Ffonts.googleapis.com%2Fcss%3Ffamily%3DArchitects%2BDaughter;exitX=0.5;exitY=1;exitDx=0;exitDy=0;entryX=0.5;entryY=0;entryDx=0;entryDy=0;" edge="1" parent="1" source="TavT3rjSJ-_88NFbu6Fk-203" target="TavT3rjSJ-_88NFbu6Fk-37">
          <mxGeometry width="50" height="50" relative="1" as="geometry">
            <mxPoint x="-410" y="440" as="sourcePoint" />
            <mxPoint x="-540" y="410" as="targetPoint" />
            <Array as="points">
              <mxPoint x="-570" y="400" />
            </Array>
          </mxGeometry>
        </mxCell>
        <mxCell id="TavT3rjSJ-_88NFbu6Fk-37" value="&lt;b&gt;&lt;font style=&quot;font-size: 18px;&quot;&gt;Used by&lt;/font&gt;&lt;/b&gt;" style="rhombus;whiteSpace=wrap;html=1;sketch=1;hachureGap=4;jiggle=2;curveFitting=1;fontFamily=Architects Daughter;fontSource=https%3A%2F%2Ffonts.googleapis.com%2Fcss%3Ffamily%3DArchitects%2BDaughter;" vertex="1" parent="1">
          <mxGeometry x="-782.5" y="400" width="125" height="140" as="geometry" />
        </mxCell>
        <mxCell id="TavT3rjSJ-_88NFbu6Fk-62" value="" style="group" vertex="1" connectable="0" parent="1">
          <mxGeometry x="-140" y="52.5" width="450" height="320" as="geometry" />
        </mxCell>
        <mxCell id="TavT3rjSJ-_88NFbu6Fk-40" value="&lt;font style=&quot;font-size: 18px;&quot;&gt;&lt;b&gt;Tour package&lt;/b&gt;&lt;/font&gt;" style="rounded=1;whiteSpace=wrap;html=1;sketch=1;hachureGap=4;jiggle=2;curveFitting=1;fontFamily=Architects Daughter;fontSource=https%3A%2F%2Ffonts.googleapis.com%2Fcss%3Ffamily%3DArchitects%2BDaughter;" vertex="1" parent="TavT3rjSJ-_88NFbu6Fk-62">
          <mxGeometry x="90" y="110" width="170" height="95" as="geometry" />
        </mxCell>
        <mxCell id="TavT3rjSJ-_88NFbu6Fk-42" value="&lt;span style=&quot;font-size:12.0pt;mso-bidi-font-size:11.0pt;&lt;br/&gt;line-height:115%;font-family:&amp;quot;Times New Roman&amp;quot;,&amp;quot;serif&amp;quot;;mso-fareast-font-family:&lt;br/&gt;Calibri;mso-fareast-theme-font:minor-latin;mso-ansi-language:EN-US;mso-fareast-language:&lt;br/&gt;EN-US;mso-bidi-language:AR-SA&quot;&gt;tp_discription&lt;/span&gt;" style="ellipse;whiteSpace=wrap;html=1;sketch=1;hachureGap=4;jiggle=2;curveFitting=1;fontFamily=Architects Daughter;fontSource=https%3A%2F%2Ffonts.googleapis.com%2Fcss%3Ffamily%3DArchitects%2BDaughter;" vertex="1" parent="TavT3rjSJ-_88NFbu6Fk-62">
          <mxGeometry x="270" y="10" width="110" height="50" as="geometry" />
        </mxCell>
        <mxCell id="TavT3rjSJ-_88NFbu6Fk-43" value="&lt;span style=&quot;font-size:12.0pt;mso-bidi-font-size:11.0pt;&lt;br/&gt;line-height:115%;font-family:&amp;quot;Times New Roman&amp;quot;,&amp;quot;serif&amp;quot;;mso-fareast-font-family:&lt;br/&gt;Calibri;mso-fareast-theme-font:minor-latin;mso-ansi-language:EN-US;mso-fareast-language:&lt;br/&gt;EN-US;mso-bidi-language:AR-SA&quot;&gt;tp_price&lt;/span&gt;" style="ellipse;whiteSpace=wrap;html=1;sketch=1;hachureGap=4;jiggle=2;curveFitting=1;fontFamily=Architects Daughter;fontSource=https%3A%2F%2Ffonts.googleapis.com%2Fcss%3Ffamily%3DArchitects%2BDaughter;" vertex="1" parent="TavT3rjSJ-_88NFbu6Fk-62">
          <mxGeometry width="90" height="40" as="geometry" />
        </mxCell>
        <mxCell id="TavT3rjSJ-_88NFbu6Fk-46" value="&lt;b&gt;&lt;u&gt;&lt;span style=&quot;font-size:12.0pt;line-height:115%;font-family:&amp;quot;Times New Roman&amp;quot;,&amp;quot;serif&amp;quot;;&lt;br/&gt;mso-fareast-font-family:Calibri;mso-fareast-theme-font:minor-latin;mso-ansi-language:&lt;br/&gt;EN-US;mso-fareast-language:EN-US;mso-bidi-language:AR-SA&quot;&gt;tp_id&lt;/span&gt;&lt;/u&gt;&lt;/b&gt;" style="ellipse;whiteSpace=wrap;html=1;sketch=1;hachureGap=4;jiggle=2;curveFitting=1;fontFamily=Architects Daughter;fontSource=https%3A%2F%2Ffonts.googleapis.com%2Fcss%3Ffamily%3DArchitects%2BDaughter;" vertex="1" parent="TavT3rjSJ-_88NFbu6Fk-62">
          <mxGeometry x="110" y="40" width="60" height="40" as="geometry" />
        </mxCell>
        <mxCell id="TavT3rjSJ-_88NFbu6Fk-47" value="&lt;span style=&quot;font-size:12.0pt;mso-bidi-font-size:11.0pt;&lt;br/&gt;line-height:115%;font-family:&amp;quot;Times New Roman&amp;quot;,&amp;quot;serif&amp;quot;;mso-fareast-font-family:&lt;br/&gt;Calibri;mso-fareast-theme-font:minor-latin;mso-ansi-language:EN-US;mso-fareast-language:&lt;br/&gt;EN-US;mso-bidi-language:AR-SA&quot;&gt;tp_places_included&lt;/span&gt;" style="ellipse;whiteSpace=wrap;html=1;sketch=1;hachureGap=4;jiggle=2;curveFitting=1;fontFamily=Architects Daughter;fontSource=https%3A%2F%2Ffonts.googleapis.com%2Fcss%3Ffamily%3DArchitects%2BDaughter;" vertex="1" parent="TavT3rjSJ-_88NFbu6Fk-62">
          <mxGeometry x="60" y="270" width="130" height="50" as="geometry" />
        </mxCell>
        <mxCell id="TavT3rjSJ-_88NFbu6Fk-48" value="&lt;span style=&quot;font-size:12.0pt;mso-bidi-font-size:11.0pt;&lt;br/&gt;line-height:115%;font-family:&amp;quot;Times New Roman&amp;quot;,&amp;quot;serif&amp;quot;;mso-fareast-font-family:&lt;br/&gt;Calibri;mso-fareast-theme-font:minor-latin;mso-ansi-language:EN-US;mso-fareast-language:&lt;br/&gt;EN-US;mso-bidi-language:AR-SA&quot;&gt;tp_name&lt;/span&gt;" style="ellipse;whiteSpace=wrap;html=1;sketch=1;hachureGap=4;jiggle=2;curveFitting=1;fontFamily=Architects Daughter;fontSource=https%3A%2F%2Ffonts.googleapis.com%2Fcss%3Ffamily%3DArchitects%2BDaughter;" vertex="1" parent="TavT3rjSJ-_88NFbu6Fk-62">
          <mxGeometry x="150" width="100" height="40" as="geometry" />
        </mxCell>
        <mxCell id="TavT3rjSJ-_88NFbu6Fk-44" value="&lt;span style=&quot;font-size:12.0pt;mso-bidi-font-size:11.0pt;&lt;br/&gt;line-height:115%;font-family:&amp;quot;Times New Roman&amp;quot;,&amp;quot;serif&amp;quot;;mso-fareast-font-family:&lt;br/&gt;Calibri;mso-fareast-theme-font:minor-latin;mso-ansi-language:EN-US;mso-fareast-language:&lt;br/&gt;EN-US;mso-bidi-language:AR-SA&quot;&gt;tp_duration_day&lt;/span&gt;" style="ellipse;whiteSpace=wrap;html=1;sketch=1;hachureGap=4;jiggle=2;curveFitting=1;fontFamily=Architects Daughter;fontSource=https%3A%2F%2Ffonts.googleapis.com%2Fcss%3Ffamily%3DArchitects%2BDaughter;" vertex="1" parent="TavT3rjSJ-_88NFbu6Fk-62">
          <mxGeometry x="170" y="230" width="120" height="50" as="geometry" />
        </mxCell>
        <mxCell id="TavT3rjSJ-_88NFbu6Fk-54" value="" style="endArrow=none;html=1;rounded=0;sketch=1;hachureGap=4;jiggle=2;curveFitting=1;fontFamily=Architects Daughter;fontSource=https%3A%2F%2Ffonts.googleapis.com%2Fcss%3Ffamily%3DArchitects%2BDaughter;entryX=0.301;entryY=1.023;entryDx=0;entryDy=0;entryPerimeter=0;exitX=1;exitY=0;exitDx=0;exitDy=0;" edge="1" parent="TavT3rjSJ-_88NFbu6Fk-62" source="TavT3rjSJ-_88NFbu6Fk-40" target="TavT3rjSJ-_88NFbu6Fk-42">
          <mxGeometry width="50" height="50" relative="1" as="geometry">
            <mxPoint x="320" y="140" as="sourcePoint" />
            <mxPoint x="370" y="90" as="targetPoint" />
          </mxGeometry>
        </mxCell>
        <mxCell id="TavT3rjSJ-_88NFbu6Fk-53" value="" style="endArrow=none;html=1;rounded=0;sketch=1;hachureGap=4;jiggle=2;curveFitting=1;fontFamily=Architects Daughter;fontSource=https%3A%2F%2Ffonts.googleapis.com%2Fcss%3Ffamily%3DArchitects%2BDaughter;exitX=0.116;exitY=-0.049;exitDx=0;exitDy=0;exitPerimeter=0;entryX=0.627;entryY=1.217;entryDx=0;entryDy=0;entryPerimeter=0;" edge="1" parent="TavT3rjSJ-_88NFbu6Fk-62" source="TavT3rjSJ-_88NFbu6Fk-40" target="TavT3rjSJ-_88NFbu6Fk-43">
          <mxGeometry width="50" height="50" relative="1" as="geometry">
            <mxPoint x="10" y="115" as="sourcePoint" />
            <mxPoint x="60" y="65" as="targetPoint" />
          </mxGeometry>
        </mxCell>
        <mxCell id="TavT3rjSJ-_88NFbu6Fk-55" value="" style="endArrow=none;html=1;rounded=0;sketch=1;hachureGap=4;jiggle=2;curveFitting=1;fontFamily=Architects Daughter;fontSource=https%3A%2F%2Ffonts.googleapis.com%2Fcss%3Ffamily%3DArchitects%2BDaughter;entryX=0.5;entryY=1;entryDx=0;entryDy=0;exitX=0.312;exitY=0.021;exitDx=0;exitDy=0;exitPerimeter=0;" edge="1" parent="TavT3rjSJ-_88NFbu6Fk-62" source="TavT3rjSJ-_88NFbu6Fk-40" target="TavT3rjSJ-_88NFbu6Fk-46">
          <mxGeometry width="50" height="50" relative="1" as="geometry">
            <mxPoint x="30" y="110" as="sourcePoint" />
            <mxPoint x="80" y="60" as="targetPoint" />
          </mxGeometry>
        </mxCell>
        <mxCell id="TavT3rjSJ-_88NFbu6Fk-52" value="" style="endArrow=none;html=1;rounded=0;sketch=1;hachureGap=4;jiggle=2;curveFitting=1;fontFamily=Architects Daughter;fontSource=https%3A%2F%2Ffonts.googleapis.com%2Fcss%3Ffamily%3DArchitects%2BDaughter;exitX=0.5;exitY=0;exitDx=0;exitDy=0;entryX=0.195;entryY=1.074;entryDx=0;entryDy=0;entryPerimeter=0;" edge="1" parent="TavT3rjSJ-_88NFbu6Fk-62" source="TavT3rjSJ-_88NFbu6Fk-47" target="TavT3rjSJ-_88NFbu6Fk-40">
          <mxGeometry width="50" height="50" relative="1" as="geometry">
            <mxPoint x="10" y="240" as="sourcePoint" />
            <mxPoint x="60" y="190" as="targetPoint" />
          </mxGeometry>
        </mxCell>
        <mxCell id="TavT3rjSJ-_88NFbu6Fk-56" value="" style="endArrow=none;html=1;rounded=0;sketch=1;hachureGap=4;jiggle=2;curveFitting=1;fontFamily=Architects Daughter;fontSource=https%3A%2F%2Ffonts.googleapis.com%2Fcss%3Ffamily%3DArchitects%2BDaughter;entryX=0.5;entryY=1;entryDx=0;entryDy=0;exitX=0.631;exitY=0.047;exitDx=0;exitDy=0;exitPerimeter=0;" edge="1" parent="TavT3rjSJ-_88NFbu6Fk-62" source="TavT3rjSJ-_88NFbu6Fk-40" target="TavT3rjSJ-_88NFbu6Fk-48">
          <mxGeometry width="50" height="50" relative="1" as="geometry">
            <mxPoint x="175" y="100" as="sourcePoint" />
            <mxPoint x="225" y="50" as="targetPoint" />
          </mxGeometry>
        </mxCell>
        <mxCell id="TavT3rjSJ-_88NFbu6Fk-58" value="" style="endArrow=none;html=1;rounded=0;sketch=1;hachureGap=4;jiggle=2;curveFitting=1;fontFamily=Architects Daughter;fontSource=https%3A%2F%2Ffonts.googleapis.com%2Fcss%3Ffamily%3DArchitects%2BDaughter;exitX=0.734;exitY=1.091;exitDx=0;exitDy=0;exitPerimeter=0;" edge="1" parent="TavT3rjSJ-_88NFbu6Fk-62" source="TavT3rjSJ-_88NFbu6Fk-40" target="TavT3rjSJ-_88NFbu6Fk-44">
          <mxGeometry width="50" height="50" relative="1" as="geometry">
            <mxPoint x="260" y="205" as="sourcePoint" />
            <mxPoint x="300" y="260" as="targetPoint" />
          </mxGeometry>
        </mxCell>
        <mxCell id="TavT3rjSJ-_88NFbu6Fk-171" value="&lt;font style=&quot;font-size: 24px;&quot;&gt;&lt;b style=&quot;&quot;&gt;N:M&lt;/b&gt;&lt;/font&gt;" style="text;html=1;align=center;verticalAlign=middle;whiteSpace=wrap;rounded=0;fontFamily=Architects Daughter;fontSource=https%3A%2F%2Ffonts.googleapis.com%2Fcss%3Ffamily%3DArchitects%2BDaughter;rotation=0;" vertex="1" parent="TavT3rjSJ-_88NFbu6Fk-62">
          <mxGeometry x="22.5" y="138.75" width="45" height="42.5" as="geometry" />
        </mxCell>
        <mxCell id="TavT3rjSJ-_88NFbu6Fk-41" value="" style="endArrow=none;html=1;rounded=0;sketch=1;hachureGap=4;jiggle=2;curveFitting=1;fontFamily=Architects Daughter;fontSource=https%3A%2F%2Ffonts.googleapis.com%2Fcss%3Ffamily%3DArchitects%2BDaughter;exitX=1;exitY=0.5;exitDx=0;exitDy=0;" edge="1" parent="TavT3rjSJ-_88NFbu6Fk-62" source="TavT3rjSJ-_88NFbu6Fk-171" target="TavT3rjSJ-_88NFbu6Fk-40">
          <mxGeometry width="50" height="50" relative="1" as="geometry">
            <mxPoint x="10" y="160.5" as="sourcePoint" />
            <mxPoint x="220" y="160.5" as="targetPoint" />
          </mxGeometry>
        </mxCell>
        <mxCell id="TavT3rjSJ-_88NFbu6Fk-174" value="&lt;font style=&quot;font-size: 24px;&quot;&gt;&lt;b style=&quot;&quot;&gt;N:1&lt;/b&gt;&lt;/font&gt;" style="text;html=1;align=center;verticalAlign=middle;whiteSpace=wrap;rounded=0;fontFamily=Architects Daughter;fontSource=https%3A%2F%2Ffonts.googleapis.com%2Fcss%3Ffamily%3DArchitects%2BDaughter;rotation=0;" vertex="1" parent="TavT3rjSJ-_88NFbu6Fk-62">
          <mxGeometry x="270" y="136.25" width="45" height="42.5" as="geometry" />
        </mxCell>
        <mxCell id="TavT3rjSJ-_88NFbu6Fk-176" value="" style="endArrow=none;html=1;rounded=0;sketch=1;hachureGap=4;jiggle=2;curveFitting=1;fontFamily=Architects Daughter;fontSource=https%3A%2F%2Ffonts.googleapis.com%2Fcss%3Ffamily%3DArchitects%2BDaughter;exitX=1;exitY=0.5;exitDx=0;exitDy=0;" edge="1" parent="TavT3rjSJ-_88NFbu6Fk-62" source="TavT3rjSJ-_88NFbu6Fk-40" target="TavT3rjSJ-_88NFbu6Fk-174">
          <mxGeometry width="50" height="50" relative="1" as="geometry">
            <mxPoint x="260" y="157.5" as="sourcePoint" />
            <mxPoint x="371" y="159.5" as="targetPoint" />
          </mxGeometry>
        </mxCell>
        <mxCell id="TavT3rjSJ-_88NFbu6Fk-64" value="" style="endArrow=none;html=1;rounded=0;sketch=1;hachureGap=4;jiggle=2;curveFitting=1;fontFamily=Architects Daughter;fontSource=https%3A%2F%2Ffonts.googleapis.com%2Fcss%3Ffamily%3DArchitects%2BDaughter;exitX=1;exitY=0.5;exitDx=0;exitDy=0;" edge="1" parent="1" source="TavT3rjSJ-_88NFbu6Fk-174" target="TavT3rjSJ-_88NFbu6Fk-63">
          <mxGeometry width="50" height="50" relative="1" as="geometry">
            <mxPoint x="120" y="210" as="sourcePoint" />
            <mxPoint x="370" y="207" as="targetPoint" />
          </mxGeometry>
        </mxCell>
        <mxCell id="TavT3rjSJ-_88NFbu6Fk-63" value="&lt;b&gt;&lt;font style=&quot;font-size: 18px;&quot;&gt;led by&lt;/font&gt;&lt;/b&gt;" style="rhombus;whiteSpace=wrap;html=1;sketch=1;hachureGap=4;jiggle=2;curveFitting=1;fontFamily=Architects Daughter;fontSource=https%3A%2F%2Ffonts.googleapis.com%2Fcss%3Ffamily%3DArchitects%2BDaughter;" vertex="1" parent="1">
          <mxGeometry x="230" y="165" width="120" height="96.25" as="geometry" />
        </mxCell>
        <mxCell id="TavT3rjSJ-_88NFbu6Fk-92" value="" style="endArrow=none;html=1;rounded=0;sketch=1;hachureGap=4;jiggle=2;curveFitting=1;fontFamily=Architects Daughter;fontSource=https%3A%2F%2Ffonts.googleapis.com%2Fcss%3Ffamily%3DArchitects%2BDaughter;exitX=0.597;exitY=1.054;exitDx=0;exitDy=0;exitPerimeter=0;entryX=0.5;entryY=0;entryDx=0;entryDy=0;" edge="1" parent="1" source="TavT3rjSJ-_88NFbu6Fk-178" target="TavT3rjSJ-_88NFbu6Fk-94">
          <mxGeometry width="50" height="50" relative="1" as="geometry">
            <mxPoint x="630" y="430" as="sourcePoint" />
            <mxPoint x="600" y="490" as="targetPoint" />
            <Array as="points">
              <mxPoint x="600" y="460" />
            </Array>
          </mxGeometry>
        </mxCell>
        <mxCell id="TavT3rjSJ-_88NFbu6Fk-93" value="" style="group" vertex="1" connectable="0" parent="1">
          <mxGeometry x="340" y="10" width="510" height="390" as="geometry" />
        </mxCell>
        <mxCell id="TavT3rjSJ-_88NFbu6Fk-45" value="&lt;b&gt;&lt;u&gt;&lt;span style=&quot;font-size:12.0pt;line-height:115%;font-family:&amp;quot;Times New Roman&amp;quot;,&amp;quot;serif&amp;quot;;&lt;br/&gt;mso-fareast-font-family:Calibri;mso-fareast-theme-font:minor-latin;mso-ansi-language:&lt;br/&gt;EN-US;mso-fareast-language:EN-US;mso-bidi-language:AR-SA&quot;&gt;tg_id&lt;/span&gt;&lt;/u&gt;&lt;/b&gt;" style="ellipse;whiteSpace=wrap;html=1;sketch=1;hachureGap=4;jiggle=2;curveFitting=1;fontFamily=Architects Daughter;fontSource=https%3A%2F%2Ffonts.googleapis.com%2Fcss%3Ffamily%3DArchitects%2BDaughter;" vertex="1" parent="TavT3rjSJ-_88NFbu6Fk-93">
          <mxGeometry x="205" y="70" width="85" height="45" as="geometry" />
        </mxCell>
        <mxCell id="TavT3rjSJ-_88NFbu6Fk-49" value="&lt;span style=&quot;font-size:12.0pt;mso-bidi-font-size:11.0pt;&lt;br/&gt;line-height:115%;font-family:&amp;quot;Times New Roman&amp;quot;,&amp;quot;serif&amp;quot;;mso-fareast-font-family:&lt;br/&gt;Calibri;mso-fareast-theme-font:minor-latin;mso-ansi-language:EN-US;mso-fareast-language:&lt;br/&gt;EN-US;mso-bidi-language:AR-SA&quot;&gt;tg_fst_name&lt;/span&gt;" style="ellipse;whiteSpace=wrap;html=1;sketch=1;hachureGap=4;jiggle=2;curveFitting=1;fontFamily=Architects Daughter;fontSource=https%3A%2F%2Ffonts.googleapis.com%2Fcss%3Ffamily%3DArchitects%2BDaughter;" vertex="1" parent="TavT3rjSJ-_88NFbu6Fk-93">
          <mxGeometry x="50" y="290" width="110" height="50" as="geometry" />
        </mxCell>
        <mxCell id="TavT3rjSJ-_88NFbu6Fk-67" value="&lt;b&gt;&lt;font style=&quot;font-size: 18px;&quot;&gt;Tour Guide&lt;/font&gt;&lt;/b&gt;" style="rounded=1;whiteSpace=wrap;html=1;sketch=1;hachureGap=4;jiggle=2;curveFitting=1;fontFamily=Architects Daughter;fontSource=https%3A%2F%2Ffonts.googleapis.com%2Fcss%3Ffamily%3DArchitects%2BDaughter;" vertex="1" parent="TavT3rjSJ-_88NFbu6Fk-93">
          <mxGeometry x="182.5" y="158.13" width="130" height="90" as="geometry" />
        </mxCell>
        <mxCell id="TavT3rjSJ-_88NFbu6Fk-68" value="&lt;span style=&quot;font-family: &amp;quot;Times New Roman&amp;quot;, &amp;quot;serif&amp;quot;; font-size: 16px; text-wrap-mode: nowrap;&quot;&gt;tg_languages-spoken&lt;/span&gt;" style="ellipse;whiteSpace=wrap;html=1;sketch=1;hachureGap=4;jiggle=2;curveFitting=1;fontFamily=Architects Daughter;fontSource=https%3A%2F%2Ffonts.googleapis.com%2Fcss%3Ffamily%3DArchitects%2BDaughter;" vertex="1" parent="TavT3rjSJ-_88NFbu6Fk-93">
          <mxGeometry x="80" width="160" height="60" as="geometry" />
        </mxCell>
        <mxCell id="TavT3rjSJ-_88NFbu6Fk-70" value="&lt;span style=&quot;font-family: &amp;quot;Times New Roman&amp;quot;, &amp;quot;serif&amp;quot;; font-size: 16px; text-wrap-mode: nowrap;&quot;&gt;tg_phone_no2&lt;/span&gt;" style="ellipse;whiteSpace=wrap;html=1;sketch=1;hachureGap=4;jiggle=2;curveFitting=1;fontFamily=Architects Daughter;fontSource=https%3A%2F%2Ffonts.googleapis.com%2Fcss%3Ffamily%3DArchitects%2BDaughter;" vertex="1" parent="TavT3rjSJ-_88NFbu6Fk-93">
          <mxGeometry x="390" y="65" width="120" height="50" as="geometry" />
        </mxCell>
        <mxCell id="TavT3rjSJ-_88NFbu6Fk-71" value="&lt;span style=&quot;font-family: &amp;quot;Times New Roman&amp;quot;, &amp;quot;serif&amp;quot;; font-size: 16px; text-wrap-mode: nowrap;&quot;&gt;tg_phone_no1&lt;/span&gt;" style="ellipse;whiteSpace=wrap;html=1;sketch=1;hachureGap=4;jiggle=2;curveFitting=1;fontFamily=Architects Daughter;fontSource=https%3A%2F%2Ffonts.googleapis.com%2Fcss%3Ffamily%3DArchitects%2BDaughter;" vertex="1" parent="TavT3rjSJ-_88NFbu6Fk-93">
          <mxGeometry x="290" y="5" width="130" height="50" as="geometry" />
        </mxCell>
        <mxCell id="TavT3rjSJ-_88NFbu6Fk-72" value="&lt;span style=&quot;font-family: &amp;quot;Times New Roman&amp;quot;, &amp;quot;serif&amp;quot;; font-size: 16px; text-wrap-mode: nowrap;&quot;&gt;tg_email&lt;/span&gt;" style="ellipse;whiteSpace=wrap;html=1;sketch=1;hachureGap=4;jiggle=2;curveFitting=1;fontFamily=Architects Daughter;fontSource=https%3A%2F%2Ffonts.googleapis.com%2Fcss%3Ffamily%3DArchitects%2BDaughter;" vertex="1" parent="TavT3rjSJ-_88NFbu6Fk-93">
          <mxGeometry x="395" y="130" width="110" height="42.5" as="geometry" />
        </mxCell>
        <mxCell id="TavT3rjSJ-_88NFbu6Fk-73" value="&lt;span style=&quot;font-family: &amp;quot;Times New Roman&amp;quot;, &amp;quot;serif&amp;quot;; font-size: 16px; text-wrap-mode: nowrap;&quot;&gt;tg_las_name&lt;/span&gt;" style="ellipse;whiteSpace=wrap;html=1;sketch=1;hachureGap=4;jiggle=2;curveFitting=1;fontFamily=Architects Daughter;fontSource=https%3A%2F%2Ffonts.googleapis.com%2Fcss%3Ffamily%3DArchitects%2BDaughter;" vertex="1" parent="TavT3rjSJ-_88NFbu6Fk-93">
          <mxGeometry x="385" y="190" width="120" height="50" as="geometry" />
        </mxCell>
        <mxCell id="TavT3rjSJ-_88NFbu6Fk-74" value="&lt;span style=&quot;font-family: &amp;quot;Times New Roman&amp;quot;, &amp;quot;serif&amp;quot;; font-size: 16px; text-wrap-mode: nowrap;&quot;&gt;tg_mid_name&lt;/span&gt;" style="ellipse;whiteSpace=wrap;html=1;sketch=1;hachureGap=4;jiggle=2;curveFitting=1;fontFamily=Architects Daughter;fontSource=https%3A%2F%2Ffonts.googleapis.com%2Fcss%3Ffamily%3DArchitects%2BDaughter;" vertex="1" parent="TavT3rjSJ-_88NFbu6Fk-93">
          <mxGeometry y="230" width="110" height="50" as="geometry" />
        </mxCell>
        <mxCell id="TavT3rjSJ-_88NFbu6Fk-69" value="&lt;span style=&quot;font-family: &amp;quot;Times New Roman&amp;quot;, &amp;quot;serif&amp;quot;; font-size: 16px; text-wrap-mode: nowrap;&quot;&gt;tu_location&lt;/span&gt;" style="ellipse;whiteSpace=wrap;html=1;sketch=1;hachureGap=4;jiggle=2;curveFitting=1;fontFamily=Architects Daughter;fontSource=https%3A%2F%2Ffonts.googleapis.com%2Fcss%3Ffamily%3DArchitects%2BDaughter;" vertex="1" parent="TavT3rjSJ-_88NFbu6Fk-93">
          <mxGeometry x="390" y="260" width="105" height="50" as="geometry" />
        </mxCell>
        <mxCell id="TavT3rjSJ-_88NFbu6Fk-76" value="&lt;span style=&quot;font-family: &amp;quot;Times New Roman&amp;quot;, &amp;quot;serif&amp;quot;; font-size: 16px; text-wrap-mode: nowrap;&quot;&gt;tg_gender&lt;/span&gt;" style="ellipse;whiteSpace=wrap;html=1;sketch=1;hachureGap=4;jiggle=2;curveFitting=1;fontFamily=Architects Daughter;fontSource=https%3A%2F%2Ffonts.googleapis.com%2Fcss%3Ffamily%3DArchitects%2BDaughter;" vertex="1" parent="TavT3rjSJ-_88NFbu6Fk-93">
          <mxGeometry x="340" y="310" width="100" height="60" as="geometry" />
        </mxCell>
        <mxCell id="TavT3rjSJ-_88NFbu6Fk-77" value="&lt;span style=&quot;font-family: &amp;quot;Times New Roman&amp;quot;, &amp;quot;serif&amp;quot;; font-size: 16px; text-wrap-mode: nowrap;&quot;&gt;tg_age&lt;/span&gt;" style="ellipse;whiteSpace=wrap;html=1;sketch=1;hachureGap=4;jiggle=2;curveFitting=1;fontFamily=Architects Daughter;fontSource=https%3A%2F%2Ffonts.googleapis.com%2Fcss%3Ffamily%3DArchitects%2BDaughter;" vertex="1" parent="TavT3rjSJ-_88NFbu6Fk-93">
          <mxGeometry x="130" y="340" width="90" height="50" as="geometry" />
        </mxCell>
        <mxCell id="TavT3rjSJ-_88NFbu6Fk-78" value="&lt;span style=&quot;font-family: &amp;quot;Times New Roman&amp;quot;, &amp;quot;serif&amp;quot;; font-size: 16px; text-wrap-mode: nowrap;&quot;&gt;tg_location&lt;/span&gt;" style="ellipse;whiteSpace=wrap;html=1;sketch=1;hachureGap=4;jiggle=2;curveFitting=1;fontFamily=Architects Daughter;fontSource=https%3A%2F%2Ffonts.googleapis.com%2Fcss%3Ffamily%3DArchitects%2BDaughter;" vertex="1" parent="TavT3rjSJ-_88NFbu6Fk-93">
          <mxGeometry x="25" y="80" width="120" height="50" as="geometry" />
        </mxCell>
        <mxCell id="TavT3rjSJ-_88NFbu6Fk-24" value="" style="endArrow=none;html=1;rounded=0;sketch=1;hachureGap=4;jiggle=2;curveFitting=1;fontFamily=Architects Daughter;fontSource=https%3A%2F%2Ffonts.googleapis.com%2Fcss%3Ffamily%3DArchitects%2BDaughter;exitX=0.25;exitY=1;exitDx=0;exitDy=0;entryX=0.676;entryY=0.009;entryDx=0;entryDy=0;entryPerimeter=0;" edge="1" parent="TavT3rjSJ-_88NFbu6Fk-93" source="TavT3rjSJ-_88NFbu6Fk-67" target="TavT3rjSJ-_88NFbu6Fk-49">
          <mxGeometry width="50" height="50" relative="1" as="geometry">
            <mxPoint x="84.99879926797382" y="424.67528456011087" as="sourcePoint" />
            <mxPoint x="110" y="320" as="targetPoint" />
          </mxGeometry>
        </mxCell>
        <mxCell id="TavT3rjSJ-_88NFbu6Fk-87" value="" style="endArrow=none;html=1;rounded=0;sketch=1;hachureGap=4;jiggle=2;curveFitting=1;fontFamily=Architects Daughter;fontSource=https%3A%2F%2Ffonts.googleapis.com%2Fcss%3Ffamily%3DArchitects%2BDaughter;exitX=0.5;exitY=0;exitDx=0;exitDy=0;entryX=0.5;entryY=1;entryDx=0;entryDy=0;" edge="1" parent="TavT3rjSJ-_88NFbu6Fk-93" source="TavT3rjSJ-_88NFbu6Fk-67" target="TavT3rjSJ-_88NFbu6Fk-45">
          <mxGeometry width="50" height="50" relative="1" as="geometry">
            <mxPoint x="210" y="165" as="sourcePoint" />
            <mxPoint x="260" y="115" as="targetPoint" />
          </mxGeometry>
        </mxCell>
        <mxCell id="TavT3rjSJ-_88NFbu6Fk-88" value="" style="endArrow=none;html=1;rounded=0;sketch=1;hachureGap=4;jiggle=2;curveFitting=1;fontFamily=Architects Daughter;fontSource=https%3A%2F%2Ffonts.googleapis.com%2Fcss%3Ffamily%3DArchitects%2BDaughter;entryX=0.25;entryY=0;entryDx=0;entryDy=0;exitX=0.5;exitY=1;exitDx=0;exitDy=0;" edge="1" parent="TavT3rjSJ-_88NFbu6Fk-93" source="TavT3rjSJ-_88NFbu6Fk-68" target="TavT3rjSJ-_88NFbu6Fk-67">
          <mxGeometry width="50" height="50" relative="1" as="geometry">
            <mxPoint x="50" y="280" as="sourcePoint" />
            <mxPoint x="100" y="230" as="targetPoint" />
          </mxGeometry>
        </mxCell>
        <mxCell id="TavT3rjSJ-_88NFbu6Fk-85" value="" style="endArrow=none;html=1;rounded=0;sketch=1;hachureGap=4;jiggle=2;curveFitting=1;fontFamily=Architects Daughter;fontSource=https%3A%2F%2Ffonts.googleapis.com%2Fcss%3Ffamily%3DArchitects%2BDaughter;exitX=1;exitY=0;exitDx=0;exitDy=0;entryX=0;entryY=0.5;entryDx=0;entryDy=0;" edge="1" parent="TavT3rjSJ-_88NFbu6Fk-93" source="TavT3rjSJ-_88NFbu6Fk-67" target="TavT3rjSJ-_88NFbu6Fk-70">
          <mxGeometry width="50" height="50" relative="1" as="geometry">
            <mxPoint x="335" y="155" as="sourcePoint" />
            <mxPoint x="385" y="105" as="targetPoint" />
          </mxGeometry>
        </mxCell>
        <mxCell id="TavT3rjSJ-_88NFbu6Fk-86" value="" style="endArrow=none;html=1;rounded=0;sketch=1;hachureGap=4;jiggle=2;curveFitting=1;fontFamily=Architects Daughter;fontSource=https%3A%2F%2Ffonts.googleapis.com%2Fcss%3Ffamily%3DArchitects%2BDaughter;exitX=0.833;exitY=-0.054;exitDx=0;exitDy=0;exitPerimeter=0;entryX=0.25;entryY=1.129;entryDx=0;entryDy=0;entryPerimeter=0;" edge="1" parent="TavT3rjSJ-_88NFbu6Fk-93" source="TavT3rjSJ-_88NFbu6Fk-67" target="TavT3rjSJ-_88NFbu6Fk-71">
          <mxGeometry width="50" height="50" relative="1" as="geometry">
            <mxPoint x="300" y="130" as="sourcePoint" />
            <mxPoint x="350" y="80" as="targetPoint" />
          </mxGeometry>
        </mxCell>
        <mxCell id="TavT3rjSJ-_88NFbu6Fk-84" value="" style="endArrow=none;html=1;rounded=0;sketch=1;hachureGap=4;jiggle=2;curveFitting=1;fontFamily=Architects Daughter;fontSource=https%3A%2F%2Ffonts.googleapis.com%2Fcss%3Ffamily%3DArchitects%2BDaughter;entryX=0;entryY=0.5;entryDx=0;entryDy=0;exitX=1;exitY=0.25;exitDx=0;exitDy=0;" edge="1" parent="TavT3rjSJ-_88NFbu6Fk-93" source="TavT3rjSJ-_88NFbu6Fk-67" target="TavT3rjSJ-_88NFbu6Fk-72">
          <mxGeometry width="50" height="50" relative="1" as="geometry">
            <mxPoint x="335" y="208.13" as="sourcePoint" />
            <mxPoint x="385" y="158.13" as="targetPoint" />
          </mxGeometry>
        </mxCell>
        <mxCell id="TavT3rjSJ-_88NFbu6Fk-83" value="" style="endArrow=none;html=1;rounded=0;sketch=1;hachureGap=4;jiggle=2;curveFitting=1;fontFamily=Architects Daughter;fontSource=https%3A%2F%2Ffonts.googleapis.com%2Fcss%3Ffamily%3DArchitects%2BDaughter;entryX=0;entryY=0.5;entryDx=0;entryDy=0;exitX=1.043;exitY=0.611;exitDx=0;exitDy=0;exitPerimeter=0;" edge="1" parent="TavT3rjSJ-_88NFbu6Fk-93" source="TavT3rjSJ-_88NFbu6Fk-67" target="TavT3rjSJ-_88NFbu6Fk-73">
          <mxGeometry width="50" height="50" relative="1" as="geometry">
            <mxPoint x="280" y="270" as="sourcePoint" />
            <mxPoint x="330" y="220" as="targetPoint" />
          </mxGeometry>
        </mxCell>
        <mxCell id="TavT3rjSJ-_88NFbu6Fk-80" value="" style="endArrow=none;html=1;rounded=0;sketch=1;hachureGap=4;jiggle=2;curveFitting=1;fontFamily=Architects Daughter;fontSource=https%3A%2F%2Ffonts.googleapis.com%2Fcss%3Ffamily%3DArchitects%2BDaughter;entryX=0;entryY=0.75;entryDx=0;entryDy=0;exitX=1;exitY=0.5;exitDx=0;exitDy=0;" edge="1" parent="TavT3rjSJ-_88NFbu6Fk-93" source="TavT3rjSJ-_88NFbu6Fk-74" target="TavT3rjSJ-_88NFbu6Fk-67">
          <mxGeometry width="50" height="50" relative="1" as="geometry">
            <mxPoint x="50" y="280" as="sourcePoint" />
            <mxPoint x="100" y="230" as="targetPoint" />
          </mxGeometry>
        </mxCell>
        <mxCell id="TavT3rjSJ-_88NFbu6Fk-82" value="" style="endArrow=none;html=1;rounded=0;sketch=1;hachureGap=4;jiggle=2;curveFitting=1;fontFamily=Architects Daughter;fontSource=https%3A%2F%2Ffonts.googleapis.com%2Fcss%3Ffamily%3DArchitects%2BDaughter;entryX=0;entryY=0.5;entryDx=0;entryDy=0;exitX=1;exitY=1;exitDx=0;exitDy=0;" edge="1" parent="TavT3rjSJ-_88NFbu6Fk-93" source="TavT3rjSJ-_88NFbu6Fk-67" target="TavT3rjSJ-_88NFbu6Fk-69">
          <mxGeometry width="50" height="50" relative="1" as="geometry">
            <mxPoint x="270" y="290" as="sourcePoint" />
            <mxPoint x="320" y="240" as="targetPoint" />
          </mxGeometry>
        </mxCell>
        <mxCell id="TavT3rjSJ-_88NFbu6Fk-81" value="" style="endArrow=none;html=1;rounded=0;sketch=1;hachureGap=4;jiggle=2;curveFitting=1;fontFamily=Architects Daughter;fontSource=https%3A%2F%2Ffonts.googleapis.com%2Fcss%3Ffamily%3DArchitects%2BDaughter;entryX=0;entryY=0;entryDx=0;entryDy=0;exitX=0.9;exitY=0.966;exitDx=0;exitDy=0;exitPerimeter=0;" edge="1" parent="TavT3rjSJ-_88NFbu6Fk-93" source="TavT3rjSJ-_88NFbu6Fk-67" target="TavT3rjSJ-_88NFbu6Fk-76">
          <mxGeometry width="50" height="50" relative="1" as="geometry">
            <mxPoint x="250" y="330" as="sourcePoint" />
            <mxPoint x="300" y="280" as="targetPoint" />
          </mxGeometry>
        </mxCell>
        <mxCell id="TavT3rjSJ-_88NFbu6Fk-91" value="" style="endArrow=none;html=1;rounded=0;sketch=1;hachureGap=4;jiggle=2;curveFitting=1;fontFamily=Architects Daughter;fontSource=https%3A%2F%2Ffonts.googleapis.com%2Fcss%3Ffamily%3DArchitects%2BDaughter;entryX=0.38;entryY=1.045;entryDx=0;entryDy=0;entryPerimeter=0;exitX=0.727;exitY=0.004;exitDx=0;exitDy=0;exitPerimeter=0;" edge="1" parent="TavT3rjSJ-_88NFbu6Fk-93" source="TavT3rjSJ-_88NFbu6Fk-77" target="TavT3rjSJ-_88NFbu6Fk-67">
          <mxGeometry width="50" height="50" relative="1" as="geometry">
            <mxPoint x="230" y="400" as="sourcePoint" />
            <mxPoint x="280" y="350" as="targetPoint" />
          </mxGeometry>
        </mxCell>
        <mxCell id="TavT3rjSJ-_88NFbu6Fk-89" value="" style="endArrow=none;html=1;rounded=0;sketch=1;hachureGap=4;jiggle=2;curveFitting=1;fontFamily=Architects Daughter;fontSource=https%3A%2F%2Ffonts.googleapis.com%2Fcss%3Ffamily%3DArchitects%2BDaughter;entryX=0;entryY=0;entryDx=0;entryDy=0;exitX=0.754;exitY=1.027;exitDx=0;exitDy=0;exitPerimeter=0;" edge="1" parent="TavT3rjSJ-_88NFbu6Fk-93" source="TavT3rjSJ-_88NFbu6Fk-78" target="TavT3rjSJ-_88NFbu6Fk-67">
          <mxGeometry width="50" height="50" relative="1" as="geometry">
            <mxPoint x="90" y="200" as="sourcePoint" />
            <mxPoint x="140" y="150" as="targetPoint" />
          </mxGeometry>
        </mxCell>
        <mxCell id="TavT3rjSJ-_88NFbu6Fk-175" value="&lt;font style=&quot;font-size: 24px;&quot;&gt;&lt;b style=&quot;&quot;&gt;1:N&lt;/b&gt;&lt;/font&gt;" style="text;html=1;align=center;verticalAlign=middle;whiteSpace=wrap;rounded=0;fontFamily=Architects Daughter;fontSource=https%3A%2F%2Ffonts.googleapis.com%2Fcss%3Ffamily%3DArchitects%2BDaughter;rotation=0;" vertex="1" parent="TavT3rjSJ-_88NFbu6Fk-93">
          <mxGeometry x="115" y="181.88" width="45" height="42.5" as="geometry" />
        </mxCell>
        <mxCell id="TavT3rjSJ-_88NFbu6Fk-60" value="" style="endArrow=none;html=1;rounded=0;sketch=1;hachureGap=4;jiggle=2;curveFitting=1;fontFamily=Architects Daughter;fontSource=https%3A%2F%2Ffonts.googleapis.com%2Fcss%3Ffamily%3DArchitects%2BDaughter;exitX=1;exitY=0.5;exitDx=0;exitDy=0;entryX=0;entryY=0.5;entryDx=0;entryDy=0;" edge="1" parent="TavT3rjSJ-_88NFbu6Fk-93" source="TavT3rjSJ-_88NFbu6Fk-175" target="TavT3rjSJ-_88NFbu6Fk-67">
          <mxGeometry width="50" height="50" relative="1" as="geometry">
            <mxPoint x="-110" y="270" as="sourcePoint" />
            <mxPoint x="100" y="180" as="targetPoint" />
          </mxGeometry>
        </mxCell>
        <mxCell id="TavT3rjSJ-_88NFbu6Fk-178" value="&lt;font style=&quot;font-size: 24px;&quot;&gt;&lt;b style=&quot;&quot;&gt;N:1&lt;/b&gt;&lt;/font&gt;" style="text;html=1;align=center;verticalAlign=middle;whiteSpace=wrap;rounded=0;fontFamily=Architects Daughter;fontSource=https%3A%2F%2Ffonts.googleapis.com%2Fcss%3Ffamily%3DArchitects%2BDaughter;rotation=0;" vertex="1" parent="TavT3rjSJ-_88NFbu6Fk-93">
          <mxGeometry x="232.5" y="267.5" width="45" height="42.5" as="geometry" />
        </mxCell>
        <mxCell id="TavT3rjSJ-_88NFbu6Fk-179" value="" style="endArrow=none;html=1;rounded=0;sketch=1;hachureGap=4;jiggle=2;curveFitting=1;fontFamily=Architects Daughter;fontSource=https%3A%2F%2Ffonts.googleapis.com%2Fcss%3Ffamily%3DArchitects%2BDaughter;exitX=0.597;exitY=1.054;exitDx=0;exitDy=0;exitPerimeter=0;entryX=0.5;entryY=0;entryDx=0;entryDy=0;" edge="1" parent="TavT3rjSJ-_88NFbu6Fk-93" source="TavT3rjSJ-_88NFbu6Fk-67" target="TavT3rjSJ-_88NFbu6Fk-178">
          <mxGeometry width="50" height="50" relative="1" as="geometry">
            <mxPoint x="260" y="253" as="sourcePoint" />
            <mxPoint x="303" y="450" as="targetPoint" />
            <Array as="points" />
          </mxGeometry>
        </mxCell>
        <mxCell id="TavT3rjSJ-_88NFbu6Fk-94" value="&lt;font style=&quot;font-size: 18px;&quot;&gt;&lt;b&gt;Leads&lt;/b&gt;&lt;/font&gt;" style="rhombus;whiteSpace=wrap;html=1;sketch=1;hachureGap=4;jiggle=2;curveFitting=1;fontFamily=Architects Daughter;fontSource=https%3A%2F%2Ffonts.googleapis.com%2Fcss%3Ffamily%3DArchitects%2BDaughter;" vertex="1" parent="1">
          <mxGeometry x="580" y="460" width="125" height="140" as="geometry" />
        </mxCell>
        <mxCell id="TavT3rjSJ-_88NFbu6Fk-95" value="" style="endArrow=none;html=1;rounded=0;sketch=1;hachureGap=4;jiggle=2;curveFitting=1;fontFamily=Architects Daughter;fontSource=https%3A%2F%2Ffonts.googleapis.com%2Fcss%3Ffamily%3DArchitects%2BDaughter;entryX=0.5;entryY=1;entryDx=0;entryDy=0;" edge="1" parent="1" source="TavT3rjSJ-_88NFbu6Fk-180" target="TavT3rjSJ-_88NFbu6Fk-94">
          <mxGeometry width="50" height="50" relative="1" as="geometry">
            <mxPoint x="595" y="690" as="sourcePoint" />
            <mxPoint x="460" y="540" as="targetPoint" />
          </mxGeometry>
        </mxCell>
        <mxCell id="TavT3rjSJ-_88NFbu6Fk-96" value="&lt;font style=&quot;font-size: 18px;&quot;&gt;&lt;b&gt;Event&lt;/b&gt;&lt;/font&gt;" style="rounded=1;whiteSpace=wrap;html=1;sketch=1;hachureGap=4;jiggle=2;curveFitting=1;fontFamily=Architects Daughter;fontSource=https%3A%2F%2Ffonts.googleapis.com%2Fcss%3Ffamily%3DArchitects%2BDaughter;" vertex="1" parent="1">
          <mxGeometry x="575" y="690" width="155" height="80" as="geometry" />
        </mxCell>
        <mxCell id="TavT3rjSJ-_88NFbu6Fk-98" value="&lt;span style=&quot;font-size: 16px; text-align: left;&quot;&gt;e_start_date&lt;/span&gt;" style="ellipse;whiteSpace=wrap;html=1;sketch=1;hachureGap=4;jiggle=2;curveFitting=1;fontFamily=Architects Daughter;fontSource=https%3A%2F%2Ffonts.googleapis.com%2Fcss%3Ffamily%3DArchitects%2BDaughter;" vertex="1" parent="1">
          <mxGeometry x="530" y="875" width="110" height="50" as="geometry" />
        </mxCell>
        <mxCell id="TavT3rjSJ-_88NFbu6Fk-99" value="&lt;span style=&quot;font-size: 16px; text-align: left;&quot;&gt;e_discription&lt;/span&gt;" style="ellipse;whiteSpace=wrap;html=1;sketch=1;hachureGap=4;jiggle=2;curveFitting=1;fontFamily=Architects Daughter;fontSource=https%3A%2F%2Ffonts.googleapis.com%2Fcss%3Ffamily%3DArchitects%2BDaughter;" vertex="1" parent="1">
          <mxGeometry x="730" y="910" width="110" height="50" as="geometry" />
        </mxCell>
        <mxCell id="TavT3rjSJ-_88NFbu6Fk-100" value="&lt;span style=&quot;font-size: 16px; text-align: left;&quot;&gt;e_name&lt;/span&gt;" style="ellipse;whiteSpace=wrap;html=1;sketch=1;hachureGap=4;jiggle=2;curveFitting=1;fontFamily=Architects Daughter;fontSource=https%3A%2F%2Ffonts.googleapis.com%2Fcss%3Ffamily%3DArchitects%2BDaughter;" vertex="1" parent="1">
          <mxGeometry x="740" y="600" width="90" height="40" as="geometry" />
        </mxCell>
        <mxCell id="TavT3rjSJ-_88NFbu6Fk-101" value="&lt;b style=&quot;text-align: left;&quot;&gt;&lt;u&gt;&lt;span style=&quot;font-size: 12pt; line-height: 18.4px; font-family: &amp;quot;Times New Roman&amp;quot;, &amp;quot;serif&amp;quot;;&quot;&gt;e_id&lt;/span&gt;&lt;/u&gt;&lt;/b&gt;" style="ellipse;whiteSpace=wrap;html=1;sketch=1;hachureGap=4;jiggle=2;curveFitting=1;fontFamily=Architects Daughter;fontSource=https%3A%2F%2Ffonts.googleapis.com%2Fcss%3Ffamily%3DArchitects%2BDaughter;" vertex="1" parent="1">
          <mxGeometry x="765" y="712.5" width="70" height="50" as="geometry" />
        </mxCell>
        <mxCell id="TavT3rjSJ-_88NFbu6Fk-102" value="&lt;span style=&quot;font-size: 16px; text-align: left;&quot;&gt;e_end_date&lt;/span&gt;" style="ellipse;whiteSpace=wrap;html=1;sketch=1;hachureGap=4;jiggle=2;curveFitting=1;fontFamily=Architects Daughter;fontSource=https%3A%2F%2Ffonts.googleapis.com%2Fcss%3Ffamily%3DArchitects%2BDaughter;" vertex="1" parent="1">
          <mxGeometry x="630" y="970" width="125" height="50" as="geometry" />
        </mxCell>
        <mxCell id="TavT3rjSJ-_88NFbu6Fk-103" value="" style="endArrow=none;html=1;rounded=0;sketch=1;hachureGap=4;jiggle=2;curveFitting=1;fontFamily=Architects Daughter;fontSource=https%3A%2F%2Ffonts.googleapis.com%2Fcss%3Ffamily%3DArchitects%2BDaughter;entryX=0;entryY=0.5;entryDx=0;entryDy=0;exitX=1.031;exitY=0.587;exitDx=0;exitDy=0;exitPerimeter=0;" edge="1" parent="1" source="TavT3rjSJ-_88NFbu6Fk-96" target="TavT3rjSJ-_88NFbu6Fk-101">
          <mxGeometry width="50" height="50" relative="1" as="geometry">
            <mxPoint x="690" y="790" as="sourcePoint" />
            <mxPoint x="740" y="740" as="targetPoint" />
          </mxGeometry>
        </mxCell>
        <mxCell id="TavT3rjSJ-_88NFbu6Fk-104" value="" style="endArrow=none;html=1;rounded=0;sketch=1;hachureGap=4;jiggle=2;curveFitting=1;fontFamily=Architects Daughter;fontSource=https%3A%2F%2Ffonts.googleapis.com%2Fcss%3Ffamily%3DArchitects%2BDaughter;entryX=1;entryY=1;entryDx=0;entryDy=0;exitX=0.282;exitY=0.12;exitDx=0;exitDy=0;exitPerimeter=0;" edge="1" parent="1" source="TavT3rjSJ-_88NFbu6Fk-99" target="TavT3rjSJ-_88NFbu6Fk-96">
          <mxGeometry width="50" height="50" relative="1" as="geometry">
            <mxPoint x="655" y="850" as="sourcePoint" />
            <mxPoint x="705" y="800" as="targetPoint" />
          </mxGeometry>
        </mxCell>
        <mxCell id="TavT3rjSJ-_88NFbu6Fk-105" value="" style="endArrow=none;html=1;rounded=0;sketch=1;hachureGap=4;jiggle=2;curveFitting=1;fontFamily=Architects Daughter;fontSource=https%3A%2F%2Ffonts.googleapis.com%2Fcss%3Ffamily%3DArchitects%2BDaughter;entryX=0.523;entryY=1.087;entryDx=0;entryDy=0;entryPerimeter=0;exitX=0.221;exitY=0.12;exitDx=0;exitDy=0;exitPerimeter=0;" edge="1" parent="1" source="TavT3rjSJ-_88NFbu6Fk-102" target="TavT3rjSJ-_88NFbu6Fk-96">
          <mxGeometry width="50" height="50" relative="1" as="geometry">
            <mxPoint x="570" y="850" as="sourcePoint" />
            <mxPoint x="620" y="800" as="targetPoint" />
          </mxGeometry>
        </mxCell>
        <mxCell id="TavT3rjSJ-_88NFbu6Fk-106" value="" style="endArrow=none;html=1;rounded=0;sketch=1;hachureGap=4;jiggle=2;curveFitting=1;fontFamily=Architects Daughter;fontSource=https%3A%2F%2Ffonts.googleapis.com%2Fcss%3Ffamily%3DArchitects%2BDaughter;exitX=0.5;exitY=0;exitDx=0;exitDy=0;entryX=0.181;entryY=1.02;entryDx=0;entryDy=0;entryPerimeter=0;" edge="1" parent="1" source="TavT3rjSJ-_88NFbu6Fk-98" target="TavT3rjSJ-_88NFbu6Fk-96">
          <mxGeometry width="50" height="50" relative="1" as="geometry">
            <mxPoint x="450" y="800" as="sourcePoint" />
            <mxPoint x="500" y="750" as="targetPoint" />
          </mxGeometry>
        </mxCell>
        <mxCell id="TavT3rjSJ-_88NFbu6Fk-107" value="e_location" style="ellipse;whiteSpace=wrap;html=1;sketch=1;hachureGap=4;jiggle=2;curveFitting=1;fontFamily=Architects Daughter;fontSource=https%3A%2F%2Ffonts.googleapis.com%2Fcss%3Ffamily%3DArchitects%2BDaughter;" vertex="1" parent="1">
          <mxGeometry x="765" y="810" width="80" height="45" as="geometry" />
        </mxCell>
        <mxCell id="TavT3rjSJ-_88NFbu6Fk-109" value="" style="endArrow=none;html=1;rounded=0;sketch=1;hachureGap=4;jiggle=2;curveFitting=1;fontFamily=Architects Daughter;fontSource=https%3A%2F%2Ffonts.googleapis.com%2Fcss%3Ffamily%3DArchitects%2BDaughter;entryX=0;entryY=0.5;entryDx=0;entryDy=0;exitX=1.031;exitY=0.08;exitDx=0;exitDy=0;exitPerimeter=0;" edge="1" parent="1" source="TavT3rjSJ-_88NFbu6Fk-96" target="TavT3rjSJ-_88NFbu6Fk-100">
          <mxGeometry width="50" height="50" relative="1" as="geometry">
            <mxPoint x="655" y="690" as="sourcePoint" />
            <mxPoint x="705" y="640" as="targetPoint" />
          </mxGeometry>
        </mxCell>
        <mxCell id="TavT3rjSJ-_88NFbu6Fk-110" value="" style="endArrow=none;html=1;rounded=0;sketch=1;hachureGap=4;jiggle=2;curveFitting=1;fontFamily=Architects Daughter;fontSource=https%3A%2F%2Ffonts.googleapis.com%2Fcss%3Ffamily%3DArchitects%2BDaughter;entryX=0;entryY=0.5;entryDx=0;entryDy=0;exitX=1.019;exitY=0.82;exitDx=0;exitDy=0;exitPerimeter=0;" edge="1" parent="1" source="TavT3rjSJ-_88NFbu6Fk-96" target="TavT3rjSJ-_88NFbu6Fk-107">
          <mxGeometry width="50" height="50" relative="1" as="geometry">
            <mxPoint x="670" y="820" as="sourcePoint" />
            <mxPoint x="720" y="770" as="targetPoint" />
          </mxGeometry>
        </mxCell>
        <mxCell id="TavT3rjSJ-_88NFbu6Fk-111" value="" style="endArrow=none;html=1;rounded=0;sketch=1;hachureGap=4;jiggle=2;curveFitting=1;fontFamily=Architects Daughter;fontSource=https%3A%2F%2Ffonts.googleapis.com%2Fcss%3Ffamily%3DArchitects%2BDaughter;entryX=0;entryY=0.5;entryDx=0;entryDy=0;exitX=1;exitY=0.5;exitDx=0;exitDy=0;" edge="1" parent="1" source="TavT3rjSJ-_88NFbu6Fk-183" target="TavT3rjSJ-_88NFbu6Fk-96">
          <mxGeometry width="50" height="50" relative="1" as="geometry">
            <mxPoint x="400" y="730" as="sourcePoint" />
            <mxPoint x="370" y="650" as="targetPoint" />
          </mxGeometry>
        </mxCell>
        <mxCell id="TavT3rjSJ-_88NFbu6Fk-112" value="&lt;span style=&quot;font-size: 18px;&quot;&gt;&lt;b&gt;Occurs at&lt;/b&gt;&lt;/span&gt;" style="rhombus;whiteSpace=wrap;html=1;sketch=1;hachureGap=4;jiggle=2;curveFitting=1;fontFamily=Architects Daughter;fontSource=https%3A%2F%2Ffonts.googleapis.com%2Fcss%3Ffamily%3DArchitects%2BDaughter;" vertex="1" parent="1">
          <mxGeometry x="410" y="680" width="100" height="100" as="geometry" />
        </mxCell>
        <mxCell id="TavT3rjSJ-_88NFbu6Fk-114" value="" style="endArrow=none;html=1;rounded=0;sketch=1;hachureGap=4;jiggle=2;curveFitting=1;fontFamily=Architects Daughter;fontSource=https%3A%2F%2Ffonts.googleapis.com%2Fcss%3Ffamily%3DArchitects%2BDaughter;entryX=0;entryY=0.5;entryDx=0;entryDy=0;exitX=1;exitY=0.5;exitDx=0;exitDy=0;" edge="1" parent="1" source="TavT3rjSJ-_88NFbu6Fk-182" target="TavT3rjSJ-_88NFbu6Fk-112">
          <mxGeometry width="50" height="50" relative="1" as="geometry">
            <mxPoint x="270" y="730" as="sourcePoint" />
            <mxPoint x="190" y="470" as="targetPoint" />
          </mxGeometry>
        </mxCell>
        <mxCell id="TavT3rjSJ-_88NFbu6Fk-132" value="" style="endArrow=none;html=1;rounded=0;sketch=1;hachureGap=4;jiggle=2;curveFitting=1;fontFamily=Architects Daughter;fontSource=https%3A%2F%2Ffonts.googleapis.com%2Fcss%3Ffamily%3DArchitects%2BDaughter;entryX=0;entryY=0.5;entryDx=0;entryDy=0;exitX=1;exitY=0.5;exitDx=0;exitDy=0;" edge="1" parent="1" source="TavT3rjSJ-_88NFbu6Fk-192" target="TavT3rjSJ-_88NFbu6Fk-131">
          <mxGeometry width="50" height="50" relative="1" as="geometry">
            <mxPoint x="-250" y="730" as="sourcePoint" />
            <mxPoint x="130" y="730" as="targetPoint" />
          </mxGeometry>
        </mxCell>
        <mxCell id="TavT3rjSJ-_88NFbu6Fk-131" value="&lt;span style=&quot;line-height: 115%;&quot;&gt;&lt;b style=&quot;&quot;&gt;&lt;font style=&quot;font-size: 18px;&quot;&gt;is&lt;/font&gt;&lt;/b&gt;&lt;/span&gt;&lt;div&gt;&lt;span style=&quot;background-color: transparent; color: light-dark(rgb(0, 0, 0), rgb(255, 255, 255));&quot;&gt;&lt;b style=&quot;&quot;&gt;&lt;font size=&quot;3&quot;&gt;associated&amp;nbsp;&lt;/font&gt;&lt;/b&gt;&lt;/span&gt;&lt;/div&gt;" style="rhombus;whiteSpace=wrap;html=1;sketch=1;hachureGap=4;jiggle=2;curveFitting=1;fontFamily=Architects Daughter;fontSource=https%3A%2F%2Ffonts.googleapis.com%2Fcss%3Ffamily%3DArchitects%2BDaughter;" vertex="1" parent="1">
          <mxGeometry x="-70" y="675" width="140" height="110" as="geometry" />
        </mxCell>
        <mxCell id="TavT3rjSJ-_88NFbu6Fk-133" value="" style="endArrow=none;html=1;rounded=0;sketch=1;hachureGap=4;jiggle=2;curveFitting=1;fontFamily=Architects Daughter;fontSource=https%3A%2F%2Ffonts.googleapis.com%2Fcss%3Ffamily%3DArchitects%2BDaughter;exitX=0.943;exitY=0.135;exitDx=0;exitDy=0;exitPerimeter=0;" edge="1" parent="1" source="TavT3rjSJ-_88NFbu6Fk-138">
          <mxGeometry width="50" height="50" relative="1" as="geometry">
            <mxPoint x="-230" y="660" as="sourcePoint" />
            <mxPoint x="-210" y="610" as="targetPoint" />
          </mxGeometry>
        </mxCell>
        <mxCell id="TavT3rjSJ-_88NFbu6Fk-147" value="" style="group" vertex="1" connectable="0" parent="1">
          <mxGeometry x="-410" y="550" width="352" height="375" as="geometry" />
        </mxCell>
        <mxCell id="TavT3rjSJ-_88NFbu6Fk-130" value="&lt;font style=&quot;font-size: 18px;&quot;&gt;&lt;b&gt;Hotel&lt;/b&gt;&lt;/font&gt;" style="rounded=1;whiteSpace=wrap;html=1;sketch=1;hachureGap=4;jiggle=2;curveFitting=1;fontFamily=Architects Daughter;fontSource=https%3A%2F%2Ffonts.googleapis.com%2Fcss%3Ffamily%3DArchitects%2BDaughter;" vertex="1" parent="TavT3rjSJ-_88NFbu6Fk-147">
          <mxGeometry x="72" y="135" width="150" height="90" as="geometry" />
        </mxCell>
        <mxCell id="TavT3rjSJ-_88NFbu6Fk-135" value="&lt;span style=&quot;font-size: 16px; text-align: left;&quot;&gt;h_rating&lt;/span&gt;" style="ellipse;whiteSpace=wrap;html=1;sketch=1;hachureGap=4;jiggle=2;curveFitting=1;fontFamily=Architects Daughter;fontSource=https%3A%2F%2Ffonts.googleapis.com%2Fcss%3Ffamily%3DArchitects%2BDaughter;" vertex="1" parent="TavT3rjSJ-_88NFbu6Fk-147">
          <mxGeometry x="107" width="80" height="50" as="geometry" />
        </mxCell>
        <mxCell id="TavT3rjSJ-_88NFbu6Fk-136" value="&lt;b style=&quot;text-align: left;&quot;&gt;&lt;u&gt;&lt;span style=&quot;font-size: 12pt; line-height: 18.4px; font-family: &amp;quot;Times New Roman&amp;quot;, &amp;quot;serif&amp;quot;;&quot;&gt;h_id&lt;/span&gt;&lt;/u&gt;&lt;/b&gt;" style="ellipse;whiteSpace=wrap;html=1;sketch=1;hachureGap=4;jiggle=2;curveFitting=1;fontFamily=Architects Daughter;fontSource=https%3A%2F%2Ffonts.googleapis.com%2Fcss%3Ffamily%3DArchitects%2BDaughter;" vertex="1" parent="TavT3rjSJ-_88NFbu6Fk-147">
          <mxGeometry x="112" y="320" width="70" height="55" as="geometry" />
        </mxCell>
        <mxCell id="TavT3rjSJ-_88NFbu6Fk-137" value="&lt;span style=&quot;font-size: 16px; text-align: left;&quot;&gt;h_name&lt;/span&gt;" style="ellipse;whiteSpace=wrap;html=1;sketch=1;hachureGap=4;jiggle=2;curveFitting=1;fontFamily=Architects Daughter;fontSource=https%3A%2F%2Ffonts.googleapis.com%2Fcss%3Ffamily%3DArchitects%2BDaughter;" vertex="1" parent="TavT3rjSJ-_88NFbu6Fk-147">
          <mxGeometry y="297.5" width="95" height="50" as="geometry" />
        </mxCell>
        <mxCell id="TavT3rjSJ-_88NFbu6Fk-139" value="&lt;span style=&quot;font-size: 16px; text-align: left;&quot;&gt;h_location&lt;/span&gt;" style="ellipse;whiteSpace=wrap;html=1;sketch=1;hachureGap=4;jiggle=2;curveFitting=1;fontFamily=Architects Daughter;fontSource=https%3A%2F%2Ffonts.googleapis.com%2Fcss%3Ffamily%3DArchitects%2BDaughter;" vertex="1" parent="TavT3rjSJ-_88NFbu6Fk-147">
          <mxGeometry y="30" width="95" height="60" as="geometry" />
        </mxCell>
        <mxCell id="TavT3rjSJ-_88NFbu6Fk-140" value="&lt;span style=&quot;font-size: 16px; text-align: left;&quot;&gt;h_price_range&lt;/span&gt;" style="ellipse;whiteSpace=wrap;html=1;sketch=1;hachureGap=4;jiggle=2;curveFitting=1;fontFamily=Architects Daughter;fontSource=https%3A%2F%2Ffonts.googleapis.com%2Fcss%3Ffamily%3DArchitects%2BDaughter;" vertex="1" parent="TavT3rjSJ-_88NFbu6Fk-147">
          <mxGeometry x="222" y="280" width="130" height="60" as="geometry" />
        </mxCell>
        <mxCell id="TavT3rjSJ-_88NFbu6Fk-138" value="&lt;span style=&quot;font-size: 16px; text-align: left;&quot;&gt;h_contact_info&lt;/span&gt;" style="ellipse;whiteSpace=wrap;html=1;sketch=1;hachureGap=4;jiggle=2;curveFitting=1;fontFamily=Architects Daughter;fontSource=https%3A%2F%2Ffonts.googleapis.com%2Fcss%3Ffamily%3DArchitects%2BDaughter;" vertex="1" parent="TavT3rjSJ-_88NFbu6Fk-147">
          <mxGeometry x="202" y="30" width="150" height="60" as="geometry" />
        </mxCell>
        <mxCell id="TavT3rjSJ-_88NFbu6Fk-144" value="" style="endArrow=none;html=1;rounded=0;sketch=1;hachureGap=4;jiggle=2;curveFitting=1;fontFamily=Architects Daughter;fontSource=https%3A%2F%2Ffonts.googleapis.com%2Fcss%3Ffamily%3DArchitects%2BDaughter;exitX=0.5;exitY=1;exitDx=0;exitDy=0;entryX=0.5;entryY=0;entryDx=0;entryDy=0;" edge="1" parent="TavT3rjSJ-_88NFbu6Fk-147" source="TavT3rjSJ-_88NFbu6Fk-135" target="TavT3rjSJ-_88NFbu6Fk-130">
          <mxGeometry width="50" height="50" relative="1" as="geometry">
            <mxPoint x="202" y="230" as="sourcePoint" />
            <mxPoint x="252" y="180" as="targetPoint" />
          </mxGeometry>
        </mxCell>
        <mxCell id="TavT3rjSJ-_88NFbu6Fk-143" value="" style="endArrow=none;html=1;rounded=0;sketch=1;hachureGap=4;jiggle=2;curveFitting=1;fontFamily=Architects Daughter;fontSource=https%3A%2F%2Ffonts.googleapis.com%2Fcss%3Ffamily%3DArchitects%2BDaughter;exitX=0.5;exitY=1;exitDx=0;exitDy=0;entryX=0.5;entryY=0;entryDx=0;entryDy=0;" edge="1" parent="TavT3rjSJ-_88NFbu6Fk-147" source="TavT3rjSJ-_88NFbu6Fk-130" target="TavT3rjSJ-_88NFbu6Fk-136">
          <mxGeometry width="50" height="50" relative="1" as="geometry">
            <mxPoint x="202" y="250" as="sourcePoint" />
            <mxPoint x="252" y="200" as="targetPoint" />
          </mxGeometry>
        </mxCell>
        <mxCell id="TavT3rjSJ-_88NFbu6Fk-146" value="" style="endArrow=none;html=1;rounded=0;sketch=1;hachureGap=4;jiggle=2;curveFitting=1;fontFamily=Architects Daughter;fontSource=https%3A%2F%2Ffonts.googleapis.com%2Fcss%3Ffamily%3DArchitects%2BDaughter;exitX=0.117;exitY=1.13;exitDx=0;exitDy=0;exitPerimeter=0;entryX=0.5;entryY=0;entryDx=0;entryDy=0;" edge="1" parent="TavT3rjSJ-_88NFbu6Fk-147" source="TavT3rjSJ-_88NFbu6Fk-130" target="TavT3rjSJ-_88NFbu6Fk-137">
          <mxGeometry width="50" height="50" relative="1" as="geometry">
            <mxPoint x="142" y="230" as="sourcePoint" />
            <mxPoint x="192" y="180" as="targetPoint" />
          </mxGeometry>
        </mxCell>
        <mxCell id="TavT3rjSJ-_88NFbu6Fk-145" value="" style="endArrow=none;html=1;rounded=0;sketch=1;hachureGap=4;jiggle=2;curveFitting=1;fontFamily=Architects Daughter;fontSource=https%3A%2F%2Ffonts.googleapis.com%2Fcss%3Ffamily%3DArchitects%2BDaughter;exitX=0.5;exitY=1;exitDx=0;exitDy=0;entryX=0;entryY=0;entryDx=0;entryDy=0;" edge="1" parent="TavT3rjSJ-_88NFbu6Fk-147" source="TavT3rjSJ-_88NFbu6Fk-139" target="TavT3rjSJ-_88NFbu6Fk-130">
          <mxGeometry width="50" height="50" relative="1" as="geometry">
            <mxPoint x="202" y="230" as="sourcePoint" />
            <mxPoint x="252" y="180" as="targetPoint" />
          </mxGeometry>
        </mxCell>
        <mxCell id="TavT3rjSJ-_88NFbu6Fk-142" value="" style="endArrow=none;html=1;rounded=0;sketch=1;hachureGap=4;jiggle=2;curveFitting=1;fontFamily=Architects Daughter;fontSource=https%3A%2F%2Ffonts.googleapis.com%2Fcss%3Ffamily%3DArchitects%2BDaughter;exitX=0.93;exitY=0.982;exitDx=0;exitDy=0;exitPerimeter=0;entryX=0.5;entryY=0;entryDx=0;entryDy=0;" edge="1" parent="TavT3rjSJ-_88NFbu6Fk-147" source="TavT3rjSJ-_88NFbu6Fk-130" target="TavT3rjSJ-_88NFbu6Fk-140">
          <mxGeometry width="50" height="50" relative="1" as="geometry">
            <mxPoint x="202" y="250" as="sourcePoint" />
            <mxPoint x="252" y="200" as="targetPoint" />
          </mxGeometry>
        </mxCell>
        <mxCell id="TavT3rjSJ-_88NFbu6Fk-141" value="" style="endArrow=none;html=1;rounded=0;sketch=1;hachureGap=4;jiggle=2;curveFitting=1;fontFamily=Architects Daughter;fontSource=https%3A%2F%2Ffonts.googleapis.com%2Fcss%3Ffamily%3DArchitects%2BDaughter;exitX=0.943;exitY=0.135;exitDx=0;exitDy=0;exitPerimeter=0;" edge="1" parent="TavT3rjSJ-_88NFbu6Fk-147" source="TavT3rjSJ-_88NFbu6Fk-130" target="TavT3rjSJ-_88NFbu6Fk-138">
          <mxGeometry width="50" height="50" relative="1" as="geometry">
            <mxPoint x="213" y="147" as="sourcePoint" />
            <mxPoint x="262" y="60" as="targetPoint" />
          </mxGeometry>
        </mxCell>
        <mxCell id="TavT3rjSJ-_88NFbu6Fk-192" value="&lt;font style=&quot;font-size: 24px;&quot;&gt;&lt;b style=&quot;&quot;&gt;1:1&lt;/b&gt;&lt;/font&gt;" style="text;html=1;align=center;verticalAlign=middle;whiteSpace=wrap;rounded=0;fontFamily=Architects Daughter;fontSource=https%3A%2F%2Ffonts.googleapis.com%2Fcss%3Ffamily%3DArchitects%2BDaughter;rotation=0;" vertex="1" parent="TavT3rjSJ-_88NFbu6Fk-147">
          <mxGeometry x="240" y="158.75" width="20" height="42.5" as="geometry" />
        </mxCell>
        <mxCell id="TavT3rjSJ-_88NFbu6Fk-194" value="" style="endArrow=none;html=1;rounded=0;sketch=1;hachureGap=4;jiggle=2;curveFitting=1;fontFamily=Architects Daughter;fontSource=https%3A%2F%2Ffonts.googleapis.com%2Fcss%3Ffamily%3DArchitects%2BDaughter;entryX=0;entryY=0.5;entryDx=0;entryDy=0;exitX=1;exitY=0.5;exitDx=0;exitDy=0;" edge="1" parent="TavT3rjSJ-_88NFbu6Fk-147" source="TavT3rjSJ-_88NFbu6Fk-130" target="TavT3rjSJ-_88NFbu6Fk-192">
          <mxGeometry width="50" height="50" relative="1" as="geometry">
            <mxPoint x="222" y="180" as="sourcePoint" />
            <mxPoint x="340" y="180" as="targetPoint" />
          </mxGeometry>
        </mxCell>
        <mxCell id="TavT3rjSJ-_88NFbu6Fk-195" value="&lt;font style=&quot;font-size: 24px;&quot;&gt;&lt;b style=&quot;&quot;&gt;N:1&lt;/b&gt;&lt;/font&gt;" style="text;html=1;align=center;verticalAlign=middle;whiteSpace=wrap;rounded=0;fontFamily=Architects Daughter;fontSource=https%3A%2F%2Ffonts.googleapis.com%2Fcss%3Ffamily%3DArchitects%2BDaughter;rotation=0;" vertex="1" parent="TavT3rjSJ-_88NFbu6Fk-147">
          <mxGeometry x="10" y="158.75" width="45" height="42.5" as="geometry" />
        </mxCell>
        <mxCell id="TavT3rjSJ-_88NFbu6Fk-148" value="" style="endArrow=none;html=1;rounded=0;sketch=1;hachureGap=4;jiggle=2;curveFitting=1;fontFamily=Architects Daughter;fontSource=https%3A%2F%2Ffonts.googleapis.com%2Fcss%3Ffamily%3DArchitects%2BDaughter;entryX=0;entryY=0.5;entryDx=0;entryDy=0;exitX=1;exitY=0.5;exitDx=0;exitDy=0;" edge="1" parent="TavT3rjSJ-_88NFbu6Fk-147" source="TavT3rjSJ-_88NFbu6Fk-195" target="TavT3rjSJ-_88NFbu6Fk-130">
          <mxGeometry width="50" height="50" relative="1" as="geometry">
            <mxPoint x="-50" y="190" as="sourcePoint" />
            <mxPoint x="30" y="110" as="targetPoint" />
            <Array as="points" />
          </mxGeometry>
        </mxCell>
        <mxCell id="TavT3rjSJ-_88NFbu6Fk-150" value="&lt;font style=&quot;font-size: 18px;&quot;&gt;&lt;b&gt;Transportation&lt;/b&gt;&lt;/font&gt;" style="rounded=1;whiteSpace=wrap;html=1;sketch=1;hachureGap=4;jiggle=2;curveFitting=1;fontFamily=Architects Daughter;fontSource=https%3A%2F%2Ffonts.googleapis.com%2Fcss%3Ffamily%3DArchitects%2BDaughter;" vertex="1" parent="1">
          <mxGeometry x="-802.5" y="685" width="165" height="110" as="geometry" />
        </mxCell>
        <mxCell id="TavT3rjSJ-_88NFbu6Fk-151" value="" style="group" vertex="1" connectable="0" parent="1">
          <mxGeometry x="30" y="520" width="410" height="355" as="geometry" />
        </mxCell>
        <mxCell id="TavT3rjSJ-_88NFbu6Fk-115" value="&lt;font style=&quot;font-size: 18px;&quot;&gt;&lt;b&gt;Place&lt;/b&gt;&lt;/font&gt;" style="rounded=1;whiteSpace=wrap;html=1;sketch=1;hachureGap=4;jiggle=2;curveFitting=1;fontFamily=Architects Daughter;fontSource=https%3A%2F%2Ffonts.googleapis.com%2Fcss%3Ffamily%3DArchitects%2BDaughter;" vertex="1" parent="TavT3rjSJ-_88NFbu6Fk-151">
          <mxGeometry x="160" y="170" width="140" height="80" as="geometry" />
        </mxCell>
        <mxCell id="TavT3rjSJ-_88NFbu6Fk-117" value="&lt;span style=&quot;font-size: 16px; text-align: left;&quot;&gt;pl_description&lt;/span&gt;" style="ellipse;whiteSpace=wrap;html=1;sketch=1;hachureGap=4;jiggle=2;curveFitting=1;fontFamily=Architects Daughter;fontSource=https%3A%2F%2Ffonts.googleapis.com%2Fcss%3Ffamily%3DArchitects%2BDaughter;" vertex="1" parent="TavT3rjSJ-_88NFbu6Fk-151">
          <mxGeometry y="80" width="140" height="60" as="geometry" />
        </mxCell>
        <mxCell id="TavT3rjSJ-_88NFbu6Fk-118" value="&lt;b style=&quot;text-align: left;&quot;&gt;&lt;u&gt;&lt;span style=&quot;font-size: 12pt; line-height: 18.4px; font-family: &amp;quot;Times New Roman&amp;quot;, &amp;quot;serif&amp;quot;;&quot;&gt;pl_id&lt;/span&gt;&lt;/u&gt;&lt;/b&gt;" style="ellipse;whiteSpace=wrap;html=1;sketch=1;hachureGap=4;jiggle=2;curveFitting=1;fontFamily=Architects Daughter;fontSource=https%3A%2F%2Ffonts.googleapis.com%2Fcss%3Ffamily%3DArchitects%2BDaughter;" vertex="1" parent="TavT3rjSJ-_88NFbu6Fk-151">
          <mxGeometry x="170" y="305" width="120" height="50" as="geometry" />
        </mxCell>
        <mxCell id="TavT3rjSJ-_88NFbu6Fk-119" value="&lt;span style=&quot;font-size: 16px; text-align: left;&quot;&gt;pl_ticket_price&lt;/span&gt;" style="ellipse;whiteSpace=wrap;html=1;sketch=1;hachureGap=4;jiggle=2;curveFitting=1;fontFamily=Architects Daughter;fontSource=https%3A%2F%2Ffonts.googleapis.com%2Fcss%3Ffamily%3DArchitects%2BDaughter;" vertex="1" parent="TavT3rjSJ-_88NFbu6Fk-151">
          <mxGeometry x="250" y="70" width="140" height="60" as="geometry" />
        </mxCell>
        <mxCell id="TavT3rjSJ-_88NFbu6Fk-120" value="&lt;span style=&quot;font-size: 16px; text-align: left;&quot;&gt;pl_name&lt;/span&gt;" style="ellipse;whiteSpace=wrap;html=1;sketch=1;hachureGap=4;jiggle=2;curveFitting=1;fontFamily=Architects Daughter;fontSource=https%3A%2F%2Ffonts.googleapis.com%2Fcss%3Ffamily%3DArchitects%2BDaughter;" vertex="1" parent="TavT3rjSJ-_88NFbu6Fk-151">
          <mxGeometry x="320" y="295" width="90" height="50" as="geometry" />
        </mxCell>
        <mxCell id="TavT3rjSJ-_88NFbu6Fk-121" value="&lt;span style=&quot;font-size: 16px; text-align: left;&quot;&gt;pl_location&lt;/span&gt;" style="ellipse;whiteSpace=wrap;html=1;sketch=1;hachureGap=4;jiggle=2;curveFitting=1;fontFamily=Architects Daughter;fontSource=https%3A%2F%2Ffonts.googleapis.com%2Fcss%3Ffamily%3DArchitects%2BDaughter;" vertex="1" parent="TavT3rjSJ-_88NFbu6Fk-151">
          <mxGeometry x="30" y="290" width="110" height="60" as="geometry" />
        </mxCell>
        <mxCell id="TavT3rjSJ-_88NFbu6Fk-122" value="&lt;span style=&quot;font-size: 16px; text-align: left;&quot;&gt;pl_historical_sihnificance&lt;/span&gt;" style="ellipse;whiteSpace=wrap;html=1;sketch=1;hachureGap=4;jiggle=2;curveFitting=1;fontFamily=Architects Daughter;fontSource=https%3A%2F%2Ffonts.googleapis.com%2Fcss%3Ffamily%3DArchitects%2BDaughter;" vertex="1" parent="TavT3rjSJ-_88NFbu6Fk-151">
          <mxGeometry x="70" width="250" height="60" as="geometry" />
        </mxCell>
        <mxCell id="TavT3rjSJ-_88NFbu6Fk-125" value="" style="endArrow=none;html=1;rounded=0;sketch=1;hachureGap=4;jiggle=2;curveFitting=1;fontFamily=Architects Daughter;fontSource=https%3A%2F%2Ffonts.googleapis.com%2Fcss%3Ffamily%3DArchitects%2BDaughter;entryX=0;entryY=0;entryDx=0;entryDy=0;exitX=1;exitY=1;exitDx=0;exitDy=0;" edge="1" parent="TavT3rjSJ-_88NFbu6Fk-151" source="TavT3rjSJ-_88NFbu6Fk-117" target="TavT3rjSJ-_88NFbu6Fk-115">
          <mxGeometry width="50" height="50" relative="1" as="geometry">
            <mxPoint x="50" y="220" as="sourcePoint" />
            <mxPoint x="100" y="170" as="targetPoint" />
          </mxGeometry>
        </mxCell>
        <mxCell id="TavT3rjSJ-_88NFbu6Fk-124" value="" style="endArrow=none;html=1;rounded=0;sketch=1;hachureGap=4;jiggle=2;curveFitting=1;fontFamily=Architects Daughter;fontSource=https%3A%2F%2Ffonts.googleapis.com%2Fcss%3Ffamily%3DArchitects%2BDaughter;exitX=0.5;exitY=0;exitDx=0;exitDy=0;entryX=0.5;entryY=1;entryDx=0;entryDy=0;" edge="1" parent="TavT3rjSJ-_88NFbu6Fk-151" source="TavT3rjSJ-_88NFbu6Fk-118" target="TavT3rjSJ-_88NFbu6Fk-115">
          <mxGeometry width="50" height="50" relative="1" as="geometry">
            <mxPoint x="200" y="290" as="sourcePoint" />
            <mxPoint x="250" y="240" as="targetPoint" />
          </mxGeometry>
        </mxCell>
        <mxCell id="TavT3rjSJ-_88NFbu6Fk-127" value="" style="endArrow=none;html=1;rounded=0;sketch=1;hachureGap=4;jiggle=2;curveFitting=1;fontFamily=Architects Daughter;fontSource=https%3A%2F%2Ffonts.googleapis.com%2Fcss%3Ffamily%3DArchitects%2BDaughter;entryX=0.5;entryY=1;entryDx=0;entryDy=0;exitX=0.926;exitY=-0.006;exitDx=0;exitDy=0;exitPerimeter=0;" edge="1" parent="TavT3rjSJ-_88NFbu6Fk-151" source="TavT3rjSJ-_88NFbu6Fk-115" target="TavT3rjSJ-_88NFbu6Fk-119">
          <mxGeometry width="50" height="50" relative="1" as="geometry">
            <mxPoint x="310" y="200" as="sourcePoint" />
            <mxPoint x="380" y="140" as="targetPoint" />
          </mxGeometry>
        </mxCell>
        <mxCell id="TavT3rjSJ-_88NFbu6Fk-126" value="" style="endArrow=none;html=1;rounded=0;sketch=1;hachureGap=4;jiggle=2;curveFitting=1;fontFamily=Architects Daughter;fontSource=https%3A%2F%2Ffonts.googleapis.com%2Fcss%3Ffamily%3DArchitects%2BDaughter;entryX=1;entryY=1;entryDx=0;entryDy=0;exitX=0.5;exitY=0;exitDx=0;exitDy=0;" edge="1" parent="TavT3rjSJ-_88NFbu6Fk-151" source="TavT3rjSJ-_88NFbu6Fk-120" target="TavT3rjSJ-_88NFbu6Fk-115">
          <mxGeometry width="50" height="50" relative="1" as="geometry">
            <mxPoint x="320" y="310" as="sourcePoint" />
            <mxPoint x="370" y="260" as="targetPoint" />
          </mxGeometry>
        </mxCell>
        <mxCell id="TavT3rjSJ-_88NFbu6Fk-128" value="" style="endArrow=none;html=1;rounded=0;sketch=1;hachureGap=4;jiggle=2;curveFitting=1;fontFamily=Architects Daughter;fontSource=https%3A%2F%2Ffonts.googleapis.com%2Fcss%3Ffamily%3DArchitects%2BDaughter;entryX=0;entryY=1;entryDx=0;entryDy=0;exitX=0.75;exitY=0.183;exitDx=0;exitDy=0;exitPerimeter=0;" edge="1" parent="TavT3rjSJ-_88NFbu6Fk-151" source="TavT3rjSJ-_88NFbu6Fk-121" target="TavT3rjSJ-_88NFbu6Fk-115">
          <mxGeometry width="50" height="50" relative="1" as="geometry">
            <mxPoint x="120" y="300" as="sourcePoint" />
            <mxPoint x="-40" y="20" as="targetPoint" />
          </mxGeometry>
        </mxCell>
        <mxCell id="TavT3rjSJ-_88NFbu6Fk-123" value="" style="endArrow=none;html=1;rounded=0;sketch=1;hachureGap=4;jiggle=2;curveFitting=1;fontFamily=Architects Daughter;fontSource=https%3A%2F%2Ffonts.googleapis.com%2Fcss%3Ffamily%3DArchitects%2BDaughter;entryX=0.5;entryY=1;entryDx=0;entryDy=0;exitX=0.25;exitY=0;exitDx=0;exitDy=0;" edge="1" parent="TavT3rjSJ-_88NFbu6Fk-151" source="TavT3rjSJ-_88NFbu6Fk-115" target="TavT3rjSJ-_88NFbu6Fk-122">
          <mxGeometry width="50" height="50" relative="1" as="geometry">
            <mxPoint x="170" y="150" as="sourcePoint" />
            <mxPoint x="220" y="100" as="targetPoint" />
          </mxGeometry>
        </mxCell>
        <mxCell id="TavT3rjSJ-_88NFbu6Fk-182" value="&lt;font style=&quot;font-size: 24px;&quot;&gt;&lt;b style=&quot;&quot;&gt;M:N&lt;/b&gt;&lt;/font&gt;" style="text;html=1;align=center;verticalAlign=middle;whiteSpace=wrap;rounded=0;fontFamily=Architects Daughter;fontSource=https%3A%2F%2Ffonts.googleapis.com%2Fcss%3Ffamily%3DArchitects%2BDaughter;rotation=0;" vertex="1" parent="TavT3rjSJ-_88NFbu6Fk-151">
          <mxGeometry x="310" y="188.75" width="45" height="42.5" as="geometry" />
        </mxCell>
        <mxCell id="TavT3rjSJ-_88NFbu6Fk-187" value="" style="endArrow=none;html=1;rounded=0;sketch=1;hachureGap=4;jiggle=2;curveFitting=1;fontFamily=Architects Daughter;fontSource=https%3A%2F%2Ffonts.googleapis.com%2Fcss%3Ffamily%3DArchitects%2BDaughter;entryX=0;entryY=0.5;entryDx=0;entryDy=0;exitX=1;exitY=0.5;exitDx=0;exitDy=0;" edge="1" parent="TavT3rjSJ-_88NFbu6Fk-151" source="TavT3rjSJ-_88NFbu6Fk-115" target="TavT3rjSJ-_88NFbu6Fk-182">
          <mxGeometry width="50" height="50" relative="1" as="geometry">
            <mxPoint x="300" y="210" as="sourcePoint" />
            <mxPoint x="380" y="210" as="targetPoint" />
          </mxGeometry>
        </mxCell>
        <mxCell id="TavT3rjSJ-_88NFbu6Fk-189" value="&lt;font style=&quot;font-size: 24px;&quot;&gt;&lt;b style=&quot;&quot;&gt;N:&lt;/b&gt;1&lt;/font&gt;" style="text;html=1;align=center;verticalAlign=middle;whiteSpace=wrap;rounded=0;fontFamily=Architects Daughter;fontSource=https%3A%2F%2Ffonts.googleapis.com%2Fcss%3Ffamily%3DArchitects%2BDaughter;rotation=0;" vertex="1" parent="TavT3rjSJ-_88NFbu6Fk-151">
          <mxGeometry x="95" y="188.75" width="45" height="42.5" as="geometry" />
        </mxCell>
        <mxCell id="TavT3rjSJ-_88NFbu6Fk-129" value="" style="endArrow=none;html=1;rounded=0;sketch=1;hachureGap=4;jiggle=2;curveFitting=1;fontFamily=Architects Daughter;fontSource=https%3A%2F%2Ffonts.googleapis.com%2Fcss%3Ffamily%3DArchitects%2BDaughter;entryX=0;entryY=0.5;entryDx=0;entryDy=0;exitX=1;exitY=0.5;exitDx=0;exitDy=0;" edge="1" parent="TavT3rjSJ-_88NFbu6Fk-151" source="TavT3rjSJ-_88NFbu6Fk-189" target="TavT3rjSJ-_88NFbu6Fk-115">
          <mxGeometry width="50" height="50" relative="1" as="geometry">
            <mxPoint x="-100" y="210" as="sourcePoint" />
            <mxPoint x="-130" y="70" as="targetPoint" />
          </mxGeometry>
        </mxCell>
        <mxCell id="TavT3rjSJ-_88NFbu6Fk-153" style="edgeStyle=orthogonalEdgeStyle;rounded=0;sketch=1;hachureGap=4;jiggle=2;curveFitting=1;orthogonalLoop=1;jettySize=auto;html=1;exitX=0.5;exitY=1;exitDx=0;exitDy=0;fontFamily=Architects Daughter;fontSource=https%3A%2F%2Ffonts.googleapis.com%2Fcss%3Ffamily%3DArchitects%2BDaughter;" edge="1" parent="1" source="TavT3rjSJ-_88NFbu6Fk-107" target="TavT3rjSJ-_88NFbu6Fk-107">
          <mxGeometry relative="1" as="geometry" />
        </mxCell>
        <mxCell id="TavT3rjSJ-_88NFbu6Fk-155" value="" style="endArrow=none;html=1;rounded=0;sketch=1;hachureGap=4;jiggle=2;curveFitting=1;fontFamily=Architects Daughter;fontSource=https%3A%2F%2Ffonts.googleapis.com%2Fcss%3Ffamily%3DArchitects%2BDaughter;exitX=0.5;exitY=1;exitDx=0;exitDy=0;entryX=0.5;entryY=0;entryDx=0;entryDy=0;" edge="1" parent="1" source="TavT3rjSJ-_88NFbu6Fk-202" target="TavT3rjSJ-_88NFbu6Fk-150">
          <mxGeometry width="50" height="50" relative="1" as="geometry">
            <mxPoint x="-600" y="470" as="sourcePoint" />
            <mxPoint x="-550" y="420" as="targetPoint" />
          </mxGeometry>
        </mxCell>
        <mxCell id="TavT3rjSJ-_88NFbu6Fk-156" value="" style="endArrow=none;html=1;rounded=0;sketch=1;hachureGap=4;jiggle=2;curveFitting=1;fontFamily=Architects Daughter;fontSource=https%3A%2F%2Ffonts.googleapis.com%2Fcss%3Ffamily%3DArchitects%2BDaughter;entryX=0;entryY=0.5;entryDx=0;entryDy=0;exitX=1;exitY=0.5;exitDx=0;exitDy=0;" edge="1" parent="1" source="TavT3rjSJ-_88NFbu6Fk-196" target="TavT3rjSJ-_88NFbu6Fk-157">
          <mxGeometry width="50" height="50" relative="1" as="geometry">
            <mxPoint x="-637" y="740" as="sourcePoint" />
            <mxPoint x="-338" y="730" as="targetPoint" />
            <Array as="points" />
          </mxGeometry>
        </mxCell>
        <mxCell id="TavT3rjSJ-_88NFbu6Fk-157" value="&lt;font style=&quot;font-size: 18px;&quot;&gt;&lt;b&gt;provide&lt;/b&gt;&lt;/font&gt;" style="rhombus;whiteSpace=wrap;html=1;sketch=1;hachureGap=4;jiggle=2;curveFitting=1;fontFamily=Architects Daughter;fontSource=https%3A%2F%2Ffonts.googleapis.com%2Fcss%3Ffamily%3DArchitects%2BDaughter;" vertex="1" parent="1">
          <mxGeometry x="-570" y="660" width="140" height="150" as="geometry" />
        </mxCell>
        <mxCell id="TavT3rjSJ-_88NFbu6Fk-159" value="&lt;b style=&quot;text-align: left;&quot;&gt;&lt;u&gt;&lt;span style=&quot;font-size: 12pt; line-height: 18.4px; font-family: &amp;quot;Times New Roman&amp;quot;, &amp;quot;serif&amp;quot;;&quot;&gt;t_id&lt;/span&gt;&lt;/u&gt;&lt;/b&gt;" style="ellipse;whiteSpace=wrap;html=1;sketch=1;hachureGap=4;jiggle=2;curveFitting=1;fontFamily=Architects Daughter;fontSource=https%3A%2F%2Ffonts.googleapis.com%2Fcss%3Ffamily%3DArchitects%2BDaughter;" vertex="1" parent="1">
          <mxGeometry x="-810" y="840" width="105" height="70" as="geometry" />
        </mxCell>
        <mxCell id="TavT3rjSJ-_88NFbu6Fk-160" value="&lt;br&gt;&lt;div style=&quot;text-align: left;&quot;&gt;&lt;span style=&quot;background-color: transparent; color: light-dark(rgb(0, 0, 0), rgb(255, 255, 255)); font-size: 16px;&quot;&gt;t_type&lt;/span&gt;&lt;/div&gt;" style="ellipse;whiteSpace=wrap;html=1;sketch=1;hachureGap=4;jiggle=2;curveFitting=1;fontFamily=Architects Daughter;fontSource=https%3A%2F%2Ffonts.googleapis.com%2Fcss%3Ffamily%3DArchitects%2BDaughter;" vertex="1" parent="1">
          <mxGeometry x="-630" y="810" width="110" height="80" as="geometry" />
        </mxCell>
        <mxCell id="TavT3rjSJ-_88NFbu6Fk-162" value="&lt;span style=&quot;font-size: 16px; text-align: left;&quot;&gt;t_availability_status&lt;/span&gt;" style="ellipse;whiteSpace=wrap;html=1;sketch=1;hachureGap=4;jiggle=2;curveFitting=1;fontFamily=Architects Daughter;fontSource=https%3A%2F%2Ffonts.googleapis.com%2Fcss%3Ffamily%3DArchitects%2BDaughter;" vertex="1" parent="1">
          <mxGeometry x="-700" y="560" width="200" height="80" as="geometry" />
        </mxCell>
        <mxCell id="TavT3rjSJ-_88NFbu6Fk-163" value="" style="endArrow=none;html=1;rounded=0;sketch=1;hachureGap=4;jiggle=2;curveFitting=1;fontFamily=Architects Daughter;fontSource=https%3A%2F%2Ffonts.googleapis.com%2Fcss%3Ffamily%3DArchitects%2BDaughter;exitX=1;exitY=1;exitDx=0;exitDy=0;entryX=0;entryY=0;entryDx=0;entryDy=0;" edge="1" parent="1" source="TavT3rjSJ-_88NFbu6Fk-150" target="TavT3rjSJ-_88NFbu6Fk-160">
          <mxGeometry width="50" height="50" relative="1" as="geometry">
            <mxPoint x="-630" y="740" as="sourcePoint" />
            <mxPoint x="-580" y="690" as="targetPoint" />
          </mxGeometry>
        </mxCell>
        <mxCell id="TavT3rjSJ-_88NFbu6Fk-164" value="" style="endArrow=none;html=1;rounded=0;sketch=1;hachureGap=4;jiggle=2;curveFitting=1;fontFamily=Architects Daughter;fontSource=https%3A%2F%2Ffonts.googleapis.com%2Fcss%3Ffamily%3DArchitects%2BDaughter;entryX=0.5;entryY=1;entryDx=0;entryDy=0;exitX=1;exitY=0;exitDx=0;exitDy=0;" edge="1" parent="1" source="TavT3rjSJ-_88NFbu6Fk-150" target="TavT3rjSJ-_88NFbu6Fk-162">
          <mxGeometry width="50" height="50" relative="1" as="geometry">
            <mxPoint x="-630" y="740" as="sourcePoint" />
            <mxPoint x="-580" y="690" as="targetPoint" />
          </mxGeometry>
        </mxCell>
        <mxCell id="TavT3rjSJ-_88NFbu6Fk-165" value="" style="endArrow=none;html=1;rounded=0;sketch=1;hachureGap=4;jiggle=2;curveFitting=1;fontFamily=Architects Daughter;fontSource=https%3A%2F%2Ffonts.googleapis.com%2Fcss%3Ffamily%3DArchitects%2BDaughter;entryX=0.75;entryY=1;entryDx=0;entryDy=0;" edge="1" parent="1" source="TavT3rjSJ-_88NFbu6Fk-161" target="TavT3rjSJ-_88NFbu6Fk-150">
          <mxGeometry width="50" height="50" relative="1" as="geometry">
            <mxPoint x="-680" y="910" as="sourcePoint" />
            <mxPoint x="-630" y="860" as="targetPoint" />
          </mxGeometry>
        </mxCell>
        <mxCell id="TavT3rjSJ-_88NFbu6Fk-161" value="&lt;span style=&quot;font-size: 16px; text-align: left;&quot;&gt;t_capacity&lt;/span&gt;" style="ellipse;whiteSpace=wrap;html=1;sketch=1;hachureGap=4;jiggle=2;curveFitting=1;fontFamily=Architects Daughter;fontSource=https%3A%2F%2Ffonts.googleapis.com%2Fcss%3Ffamily%3DArchitects%2BDaughter;" vertex="1" parent="1">
          <mxGeometry x="-750" y="930" width="140" height="70" as="geometry" />
        </mxCell>
        <mxCell id="TavT3rjSJ-_88NFbu6Fk-168" value="" style="endArrow=none;html=1;rounded=0;sketch=1;hachureGap=4;jiggle=2;curveFitting=1;fontFamily=Architects Daughter;fontSource=https%3A%2F%2Ffonts.googleapis.com%2Fcss%3Ffamily%3DArchitects%2BDaughter;exitX=0.25;exitY=1;exitDx=0;exitDy=0;entryX=0.5;entryY=0;entryDx=0;entryDy=0;" edge="1" parent="1" source="TavT3rjSJ-_88NFbu6Fk-150" target="TavT3rjSJ-_88NFbu6Fk-159">
          <mxGeometry width="50" height="50" relative="1" as="geometry">
            <mxPoint x="-630" y="740" as="sourcePoint" />
            <mxPoint x="-580" y="690" as="targetPoint" />
          </mxGeometry>
        </mxCell>
        <mxCell id="TavT3rjSJ-_88NFbu6Fk-173" value="" style="endArrow=none;html=1;rounded=0;sketch=1;hachureGap=4;jiggle=2;curveFitting=1;fontFamily=Architects Daughter;fontSource=https%3A%2F%2Ffonts.googleapis.com%2Fcss%3Ffamily%3DArchitects%2BDaughter;exitX=1;exitY=0.5;exitDx=0;exitDy=0;" edge="1" parent="1" source="TavT3rjSJ-_88NFbu6Fk-35">
          <mxGeometry width="50" height="50" relative="1" as="geometry">
            <mxPoint x="-180" y="213" as="sourcePoint" />
            <mxPoint x="-117" y="213" as="targetPoint" />
          </mxGeometry>
        </mxCell>
        <mxCell id="TavT3rjSJ-_88NFbu6Fk-177" value="" style="endArrow=none;html=1;rounded=0;sketch=1;hachureGap=4;jiggle=2;curveFitting=1;fontFamily=Architects Daughter;fontSource=https%3A%2F%2Ffonts.googleapis.com%2Fcss%3Ffamily%3DArchitects%2BDaughter;exitX=1;exitY=0.5;exitDx=0;exitDy=0;entryX=0;entryY=0.5;entryDx=0;entryDy=0;" edge="1" parent="1" source="TavT3rjSJ-_88NFbu6Fk-63" target="TavT3rjSJ-_88NFbu6Fk-175">
          <mxGeometry width="50" height="50" relative="1" as="geometry">
            <mxPoint x="350" y="213" as="sourcePoint" />
            <mxPoint x="523" y="213" as="targetPoint" />
          </mxGeometry>
        </mxCell>
        <mxCell id="TavT3rjSJ-_88NFbu6Fk-181" value="" style="endArrow=none;html=1;rounded=0;sketch=1;hachureGap=4;jiggle=2;curveFitting=1;fontFamily=Architects Daughter;fontSource=https%3A%2F%2Ffonts.googleapis.com%2Fcss%3Ffamily%3DArchitects%2BDaughter;entryX=0.5;entryY=1;entryDx=0;entryDy=0;" edge="1" parent="1" source="TavT3rjSJ-_88NFbu6Fk-96" target="TavT3rjSJ-_88NFbu6Fk-180">
          <mxGeometry width="50" height="50" relative="1" as="geometry">
            <mxPoint x="649" y="690" as="sourcePoint" />
            <mxPoint x="643" y="600" as="targetPoint" />
          </mxGeometry>
        </mxCell>
        <mxCell id="TavT3rjSJ-_88NFbu6Fk-180" value="&lt;font style=&quot;font-size: 24px;&quot;&gt;&lt;b style=&quot;&quot;&gt;1:N&lt;/b&gt;&lt;/font&gt;" style="text;html=1;align=center;verticalAlign=middle;whiteSpace=wrap;rounded=0;fontFamily=Architects Daughter;fontSource=https%3A%2F%2Ffonts.googleapis.com%2Fcss%3Ffamily%3DArchitects%2BDaughter;rotation=0;" vertex="1" parent="1">
          <mxGeometry x="630" y="640" width="45" height="42.5" as="geometry" />
        </mxCell>
        <mxCell id="TavT3rjSJ-_88NFbu6Fk-188" value="" style="endArrow=none;html=1;rounded=0;sketch=1;hachureGap=4;jiggle=2;curveFitting=1;fontFamily=Architects Daughter;fontSource=https%3A%2F%2Ffonts.googleapis.com%2Fcss%3Ffamily%3DArchitects%2BDaughter;entryX=0;entryY=0.5;entryDx=0;entryDy=0;exitX=1;exitY=0.5;exitDx=0;exitDy=0;" edge="1" parent="1" source="TavT3rjSJ-_88NFbu6Fk-112" target="TavT3rjSJ-_88NFbu6Fk-183">
          <mxGeometry width="50" height="50" relative="1" as="geometry">
            <mxPoint x="510" y="730" as="sourcePoint" />
            <mxPoint x="575" y="730" as="targetPoint" />
          </mxGeometry>
        </mxCell>
        <mxCell id="TavT3rjSJ-_88NFbu6Fk-183" value="&lt;font style=&quot;font-size: 24px;&quot;&gt;&lt;b style=&quot;&quot;&gt;M:N&lt;/b&gt;&lt;/font&gt;" style="text;html=1;align=center;verticalAlign=middle;whiteSpace=wrap;rounded=0;fontFamily=Architects Daughter;fontSource=https%3A%2F%2Ffonts.googleapis.com%2Fcss%3Ffamily%3DArchitects%2BDaughter;rotation=0;" vertex="1" parent="1">
          <mxGeometry x="520" y="708.75" width="45" height="42.5" as="geometry" />
        </mxCell>
        <mxCell id="TavT3rjSJ-_88NFbu6Fk-190" value="" style="endArrow=none;html=1;rounded=0;sketch=1;hachureGap=4;jiggle=2;curveFitting=1;fontFamily=Architects Daughter;fontSource=https%3A%2F%2Ffonts.googleapis.com%2Fcss%3Ffamily%3DArchitects%2BDaughter;entryX=0;entryY=0.5;entryDx=0;entryDy=0;exitX=1;exitY=0.5;exitDx=0;exitDy=0;" edge="1" parent="1" source="TavT3rjSJ-_88NFbu6Fk-131" target="TavT3rjSJ-_88NFbu6Fk-189">
          <mxGeometry width="50" height="50" relative="1" as="geometry">
            <mxPoint x="50" y="730" as="sourcePoint" />
            <mxPoint x="190" y="730" as="targetPoint" />
          </mxGeometry>
        </mxCell>
        <mxCell id="TavT3rjSJ-_88NFbu6Fk-199" value="" style="endArrow=none;html=1;rounded=0;sketch=1;hachureGap=4;jiggle=2;curveFitting=1;fontFamily=Architects Daughter;fontSource=https%3A%2F%2Ffonts.googleapis.com%2Fcss%3Ffamily%3DArchitects%2BDaughter;entryX=0;entryY=0.5;entryDx=0;entryDy=0;exitX=1;exitY=0.5;exitDx=0;exitDy=0;" edge="1" parent="1" source="TavT3rjSJ-_88NFbu6Fk-157" target="TavT3rjSJ-_88NFbu6Fk-195">
          <mxGeometry width="50" height="50" relative="1" as="geometry">
            <mxPoint x="-430" y="735" as="sourcePoint" />
            <mxPoint x="-338" y="730" as="targetPoint" />
            <Array as="points" />
          </mxGeometry>
        </mxCell>
        <mxCell id="TavT3rjSJ-_88NFbu6Fk-200" value="" style="endArrow=none;html=1;rounded=0;sketch=1;hachureGap=4;jiggle=2;curveFitting=1;fontFamily=Architects Daughter;fontSource=https%3A%2F%2Ffonts.googleapis.com%2Fcss%3Ffamily%3DArchitects%2BDaughter;entryX=0;entryY=0.5;entryDx=0;entryDy=0;exitX=1;exitY=0.5;exitDx=0;exitDy=0;" edge="1" parent="1" source="TavT3rjSJ-_88NFbu6Fk-150" target="TavT3rjSJ-_88NFbu6Fk-196">
          <mxGeometry width="50" height="50" relative="1" as="geometry">
            <mxPoint x="-637" y="740" as="sourcePoint" />
            <mxPoint x="-570" y="735" as="targetPoint" />
            <Array as="points" />
          </mxGeometry>
        </mxCell>
        <mxCell id="TavT3rjSJ-_88NFbu6Fk-196" value="&lt;font style=&quot;font-size: 24px;&quot;&gt;&lt;b style=&quot;&quot;&gt;1:N&lt;/b&gt;&lt;/font&gt;" style="text;html=1;align=center;verticalAlign=middle;whiteSpace=wrap;rounded=0;fontFamily=Architects Daughter;fontSource=https%3A%2F%2Ffonts.googleapis.com%2Fcss%3Ffamily%3DArchitects%2BDaughter;rotation=0;" vertex="1" parent="1">
          <mxGeometry x="-630" y="716.25" width="45" height="42.5" as="geometry" />
        </mxCell>
        <mxCell id="TavT3rjSJ-_88NFbu6Fk-204" value="" style="endArrow=none;html=1;rounded=0;sketch=1;hachureGap=4;jiggle=2;curveFitting=1;fontFamily=Architects Daughter;fontSource=https%3A%2F%2Ffonts.googleapis.com%2Fcss%3Ffamily%3DArchitects%2BDaughter;exitX=0.5;exitY=1;exitDx=0;exitDy=0;entryX=0.5;entryY=0;entryDx=0;entryDy=0;" edge="1" parent="1" source="TavT3rjSJ-_88NFbu6Fk-1" target="TavT3rjSJ-_88NFbu6Fk-203">
          <mxGeometry width="50" height="50" relative="1" as="geometry">
            <mxPoint x="-575" y="260" as="sourcePoint" />
            <mxPoint x="-720" y="400" as="targetPoint" />
            <Array as="points" />
          </mxGeometry>
        </mxCell>
        <mxCell id="TavT3rjSJ-_88NFbu6Fk-203" value="&lt;font style=&quot;font-size: 24px;&quot;&gt;&lt;b style=&quot;&quot;&gt;M:N&lt;/b&gt;&lt;/font&gt;" style="text;html=1;align=center;verticalAlign=middle;whiteSpace=wrap;rounded=0;fontFamily=Architects Daughter;fontSource=https%3A%2F%2Ffonts.googleapis.com%2Fcss%3Ffamily%3DArchitects%2BDaughter;rotation=0;" vertex="1" parent="1">
          <mxGeometry x="-597.5" y="270" width="45" height="42.5" as="geometry" />
        </mxCell>
        <mxCell id="TavT3rjSJ-_88NFbu6Fk-205" value="" style="endArrow=none;html=1;rounded=0;sketch=1;hachureGap=4;jiggle=2;curveFitting=1;fontFamily=Architects Daughter;fontSource=https%3A%2F%2Ffonts.googleapis.com%2Fcss%3Ffamily%3DArchitects%2BDaughter;exitX=0.5;exitY=1;exitDx=0;exitDy=0;entryX=0.5;entryY=0;entryDx=0;entryDy=0;" edge="1" parent="1" source="TavT3rjSJ-_88NFbu6Fk-37" target="TavT3rjSJ-_88NFbu6Fk-202">
          <mxGeometry width="50" height="50" relative="1" as="geometry">
            <mxPoint x="-720" y="540" as="sourcePoint" />
            <mxPoint x="-720" y="685" as="targetPoint" />
          </mxGeometry>
        </mxCell>
        <mxCell id="TavT3rjSJ-_88NFbu6Fk-202" value="&lt;font style=&quot;font-size: 24px;&quot;&gt;&lt;b style=&quot;&quot;&gt;M:N&lt;/b&gt;&lt;/font&gt;" style="text;html=1;align=center;verticalAlign=middle;whiteSpace=wrap;rounded=0;fontFamily=Architects Daughter;fontSource=https%3A%2F%2Ffonts.googleapis.com%2Fcss%3Ffamily%3DArchitects%2BDaughter;rotation=0;" vertex="1" parent="1">
          <mxGeometry x="-742.5" y="632.5" width="45" height="42.5" as="geometry" />
        </mxCell>
      </root>
    </mxGraphModel>
  </diagram>
</mxfile>
